<?xml version="1.0" encoding="iso-8859-1"?>
<!-- Uploaded to: SVG Repo, www.svgrepo.com, Generator: SVG Repo Mixer Tools -->
<svg version="1.1" id="Layer_1" xmlns="http://www.w3.org/2000/svg" xmlns:xlink="http://www.w3.org/1999/xlink"
	 viewBox="0 0 511.999 511.999" xml:space="preserve">
<rect x="187.59" y="191.866" style="fill:#DC8246;" width="136.818" height="42.756"/>
<g>
	<path style="fill:#FFA050;" d="M324.405,8.017c-18.234,10.644-42.184,17.102-68.413,17.102c-0.006,0-0.013-0.001-0.019-0.001
		c-0.006,0-0.013,0.001-0.019,0.001c-26.23,0-50.179-6.458-68.413-17.102h-34.207l23.635,173.334
		c1.155,8.474,8.394,14.791,16.946,14.791H318.03c8.552,0,15.79-6.318,16.946-14.791L358.612,8.017H324.405z"/>
	<path style="fill:#FFA050;" d="M367.164,503.983h-222.33l23.473-250.378c1.236-13.183,12.301-23.259,25.541-23.259H318.15
		c13.24,0,24.306,10.076,25.541,23.259L367.164,503.983z"/>
</g>
<path style="fill:#F09146;" d="M255.974,102.079c51.95,0,94.063-42.113,94.063-94.063h-25.631
	c-18.234,10.644-42.184,17.102-68.413,17.102c-0.006,0-0.013-0.001-0.019-0.001c-0.006,0-0.013,0.001-0.019,0.001
	c-26.23,0-50.179-6.458-68.413-17.102h-25.631C161.911,59.966,204.023,102.079,255.974,102.079z"/>
<g>
	<path style="fill:#DC8246;" d="M317.064,11.926c-17.115,8.295-38.229,13.193-61.072,13.193c-22.843,0-43.958-4.899-61.074-13.193
		c-2.329-1.129-4.772-1.945-7.26-2.575c0.717,37.158,31.011,67.075,68.342,67.075c37.332,0,67.626-29.917,68.342-67.077
		C321.845,9.978,319.397,10.796,317.064,11.926z"/>
	<path style="fill:#DC8246;" d="M255.993,25.119c-0.006,0-0.013-0.001-0.019-0.001s-0.013,0.001-0.019,0.001
		c-26.219,0-50.16-6.453-68.39-17.089c0.009,37.776,30.632,68.396,68.409,68.396s68.401-30.621,68.409-68.396
		C306.152,18.666,282.212,25.119,255.993,25.119z"/>
</g>
<path d="M375.146,503.235l-23.473-250.378c-1.155-12.324-8.723-22.495-19.248-27.386v-25.898
	c5.561-3.911,9.524-10.014,10.494-17.139L366.556,9.099c0.312-2.294-0.381-4.61-1.904-6.355C363.13,1.002,360.928,0,358.613,0
	h-34.206c-1.421,0-2.815,0.377-4.042,1.093c-17.686,10.323-40.546,16.009-64.374,16.009c-23.819,0-46.676-5.682-64.361-16.001
	l-0.004,0.007c-1.17-0.673-2.627-1.099-4.405-1.102L153.386,0c-2.315,0-4.517,1.002-6.039,2.745
	c-1.522,1.744-2.216,4.061-1.904,6.355l23.636,173.334c0.972,7.124,4.933,13.228,10.494,17.139v25.898
	c-10.524,4.891-18.092,15.063-19.248,27.386l-23.473,250.378c-0.211,2.247,0.536,4.478,2.054,6.146s3.672,2.619,5.927,2.619h222.33
	c2.256,0,4.408-0.951,5.927-2.619C374.61,507.713,375.356,505.481,375.146,503.235z M195.607,222.33v-18.171h120.785v18.171H195.607
	z M314.799,21.743c-6.234,26.706-30.222,46.666-58.8,46.666c-28.576,0-52.562-19.956-58.799-46.659
	c17.517,7.398,37.878,11.386,58.791,11.386C276.912,33.136,297.28,29.144,314.799,21.743z M162.57,16.033
	c5.79,0,12.444,0.001,17.426,0.002c4.022,38.386,36.571,68.407,76.004,68.407c39.434,0,71.984-30.022,76.004-68.409h17.426
	l-22.395,164.233c-0.611,4.48-4.481,7.859-9.002,7.859H193.967c-4.521,0-8.392-3.379-9.002-7.859L162.57,16.033z M153.638,495.967
	l22.651-241.613c0.854-9.117,8.404-15.991,17.56-15.991h19.471l-8.081,145.459c-0.246,4.421,3.139,8.204,7.559,8.449
	c0.152,0.009,0.301,0.013,0.452,0.013c4.223,0,7.76-3.303,7.996-7.572l8.132-146.349h18.604v205.762
	c0,4.427,3.589,8.017,8.017,8.017c4.427,0,8.017-3.589,8.017-8.017V238.363h18.604l8.13,146.349
	c0.237,4.269,3.773,7.572,7.996,7.572c0.15,0,0.3-0.004,0.452-0.013c4.421-0.245,7.805-4.029,7.559-8.449l-8.08-145.459h19.471
	c9.156,0,16.706,6.874,17.56,15.991l22.652,241.613H153.638z"/>
</svg>