<?xml version="1.0" encoding="utf-8"?>
<!-- Generator: Adobe Illustrator 27.5.0, SVG Export Plug-In . SVG Version: 6.00 Build 0)  -->
<svg version="1.1" xmlns="http://www.w3.org/2000/svg" xmlns:xlink="http://www.w3.org/1999/xlink" x="0px" y="0px"
	 viewBox="0 0 500 500" style="enable-background:new 0 0 500 500;" xml:space="preserve">
<g id="BACKGROUND">
	<rect style="fill:transparent;" width="500" height="500"/>
</g>
<g id="OBJECTS">
	<g>
		<defs>
			<rect id="SVGID_1_" width="500" height="500"/>
		</defs>
		<clipPath id="SVGID_00000148632671484409225380000012540699058840375682_">
			<use xlink:href="#SVGID_1_"  style="overflow:visible;"/>
		</clipPath>
		<g style="clip-path:url(#SVGID_00000148632671484409225380000012540699058840375682_);">
			<path style="fill:#FBECDD;" d="M467.361,447.457H38.858c-15.01-10.738-15.51-34.445-6.761-50.694
				c8.749-16.25,24.318-27.457,38.741-38.972c14.423-11.515,28.854-24.945,33.591-42.783c6.021-22.674-5.154-46.243-18.219-65.728
				c-13.065-19.485-28.764-38.36-33.382-61.361c-6.402-31.889,11.055-65.234,37.117-84.694
				c15.058-11.243,34.189-18.844,52.587-15.016c20.674,4.302,35.788,21.655,48.41,38.585c12.621,16.93,25.418,35.328,44.842,43.611
				c23.778,10.141,51.205,2.467,75.045-7.527c23.84-9.994,47.892-22.492,73.733-21.821c24.862,0.646,48.991,14.578,61.981,35.787
				s14.435,49.034,3.713,71.474c-7.879,16.49-21.431,29.476-31.874,44.474c-10.443,14.998-17.887,34.341-11.329,51.399
				c8.158,21.218,33.698,29.676,48.053,47.302C467.293,406.458,475.051,429.756,467.361,447.457z"/>
			<g>
				<g>
					<path style="fill:#B6E585;" d="M74.331,351.366c-5.163-6.958-12.412-13.131-21.042-13.891
						c-8.536-0.751-16.858,4.093-22.163,10.823c-5.305,6.73-8.026,15.123-9.943,23.475c-2.326,10.136-3.62,20.508-3.854,30.905
						c3.257-12.272,9.009-23.393,16.554-33.604c2.627-3.555,5.531-6.978,9.15-9.517c3.619-2.539,8.039-4.142,12.44-3.729
						c6.82,0.641,12.296,5.845,16.456,11.287c8.114,10.615,13.482,23.312,15.441,36.53l5.669-0.257
						C89.364,385.167,85.407,366.292,74.331,351.366z"/>
					<path style="fill:#B6E585;" d="M164.686,337.046c-3.711-8.928-10.162-18.161-19.761-19.318
						c-5.328-0.642-10.718,1.443-14.974,4.712c-4.257,3.268-7.524,7.641-10.491,12.113c-13.528,20.39-21.929,44.153-24.222,68.515
						l2.205,6.117c8.265-21.04,18.381-41.608,32.747-59.06c2.221-2.698,4.59-5.36,7.587-7.158c2.997-1.798,6.745-2.638,10.038-1.47
						c4.282,1.518,6.766,5.888,8.762,9.97c7.072,14.461,14.328,28.613,18.519,44.155
						C173.763,375.741,172.335,355.445,164.686,337.046z"/>
					<path style="fill:#B6E585;" d="M154.846,371.068c-1.729-4.755-4.397-9.639-9.032-11.669c-3.748-1.642-8.188-1.066-11.878,0.705
						c-3.689,1.77-6.744,4.619-9.565,7.583c-7.825,8.224-14.334,17.696-19.206,27.949l4.999,2.031
						c4.417-8.916,10.522-16.992,17.895-23.674c4.146-3.757,9.858-7.258,15.026-5.113c3.884,1.612,5.907,5.85,7.281,9.825
						c3.401,9.838,6.234,19.676,5.86,30.078C159.707,396.478,159.217,383.084,154.846,371.068z"/>
					<path style="fill:#B6E585;" d="M84.939,310.859c-2.774-6.341-6.413-12.837-12.569-16c-6.283-3.229-14.205-2.205-20.212,1.513
						c-6.007,3.718-10.26,9.795-13.005,16.304c-2.745,6.509-4.12,13.499-5.477,20.432c3.169-7.546,7.891-14.829,13.949-20.334
						s15.652-8.024,22.545-3.61c4.739,3.035,7.204,8.54,9.137,13.824c9.079,24.823,12.027,51.503,12.466,77.931l4.798-0.267
						C99.305,370.272,97.163,338.806,84.939,310.859z"/>
					<path style="fill:#B6E585;" d="M68.298,372.397c-3.203-3.409-7.787-6.129-12.375-5.221c-2.628,0.52-4.923,2.187-6.647,4.237
						c-1.723,2.05-2.935,4.476-4.046,6.913c-5.583,12.252-9.035,25.626-8.746,39.087c3.853-12.108,9.351-23.638,15.337-34.846
						c0.83-1.555,1.694-3.118,2.916-4.388c1.222-1.27,2.86-2.231,4.622-2.281c2.923-0.082,5.315,2.258,7.043,4.617
						c3.262,4.456,5.543,9.627,6.632,15.04l6.823,2.402C77.423,388.823,74.771,379.286,68.298,372.397z"/>
				</g>
				<polygon style="fill:#A9A8F0;" points="112.153,447.29 78.322,447.29 65.651,392.388 124.825,392.388 				"/>
				<g>
					<defs>
						<polygon id="SVGID_00000183210076179165756130000008893380705117733280_" points="112.153,447.29 78.322,447.29
							65.651,392.388 124.825,392.388 						"/>
					</defs>
					<clipPath id="SVGID_00000145057853609839895020000011093841388615791261_">
						<use xlink:href="#SVGID_00000183210076179165756130000008893380705117733280_"  style="overflow:visible;"/>
					</clipPath>
					<g style="clip-path:url(#SVGID_00000145057853609839895020000011093841388615791261_);">
						<g>
							<path style="fill:#FFFFFF;" d="M78.737,419.213c-0.436,0-0.884-0.023-1.345-0.07c-6.92-0.702-13.262-5.53-15.781-12.015
								l0.699-0.271c2.419,6.228,8.511,10.865,15.158,11.54c1.414,0.143,4.892,0.231,6.636-2.051
								c1.252-1.638,1.15-3.887,0.844-5.484c-0.168-0.872-0.419-1.75-0.662-2.599c-0.303-1.06-0.617-2.154-0.78-3.274
								c-0.847-5.822,2.783-12.029,8.444-14.439c5.353-2.276,12.092-1.131,16.773,2.849c1.963,1.67,3.564,3.771,5.112,5.802
								c2.201,2.887,4.279,5.613,7.322,7.248c4.465,2.398,10.364,1.595,14.022-1.917l0.52,0.541
								c-3.888,3.729-10.152,4.586-14.897,2.036c-3.185-1.711-5.41-4.631-7.563-7.454c-1.524-1.999-3.1-4.066-5.002-5.684
								c-4.47-3.803-10.897-4.898-15.993-2.731c-5.358,2.28-8.795,8.145-7.996,13.642c0.156,1.069,0.462,2.14,0.759,3.175
								c0.248,0.865,0.503,1.76,0.677,2.665c0.335,1.748,0.436,4.223-0.985,6.08C83.507,418.362,81.375,419.213,78.737,419.213z"/>
						</g>
						<g>
							<path style="fill:#FFFFFF;" d="M106.819,450.03c-0.903,0-1.806-0.125-2.679-0.38c-3.534-1.034-6.088-3.906-8.321-6.854
								l-0.683-0.909c-1.894-2.529-3.852-5.145-6.562-6.7c-3.625-2.079-8.395-1.916-11.87,0.405
								c-3.475,2.322-5.45,6.667-4.915,10.811l-0.744,0.096c-0.57-4.42,1.537-9.055,5.242-11.53
								c3.706-2.477,8.794-2.651,12.66-0.433c2.844,1.631,4.85,4.311,6.789,6.901l0.68,0.905c2.156,2.847,4.608,5.614,7.934,6.587
								c2.531,0.743,5.343,0.294,7.52-1.196c2.177-1.489,3.612-3.948,3.838-6.576c0.254-2.95-0.965-5.829-2.145-8.612
								c-0.201-0.474-0.4-0.946-0.593-1.417c-1.841-4.504-2.04-7.98-0.608-10.627c1.076-1.988,3.139-3.505,5.662-4.159
								c2.016-0.521,4.314-0.53,7.026-0.021l-0.138,0.736c-2.602-0.485-4.792-0.484-6.7,0.012c-2.322,0.602-4.213,1.983-5.19,3.79
								c-1.318,2.436-1.108,5.702,0.643,9.986c0.191,0.468,0.39,0.937,0.589,1.407c1.215,2.868,2.471,5.834,2.201,8.97
								c-0.246,2.85-1.801,5.516-4.162,7.131C110.684,449.454,108.754,450.03,106.819,450.03z"/>
						</g>
						<g>
							<path style="fill:#FFFFFF;" d="M100.382,434.39c-1.655,0-3.16-0.433-4.13-0.794c-1.763-0.658-3.398-1.629-4.98-2.566
								c-0.585-0.348-1.17-0.694-1.762-1.026c-4.102-2.301-7.987-3.477-11.548-3.496c-4.35-0.044-8.32,1.753-10.595,4.751
								l-0.598-0.453c2.402-3.165,6.55-5.048,11.11-5.048c0.029,0,0.058,0,0.087,0c3.741,0.021,7.638,1.195,11.911,3.592
								c0.597,0.335,1.187,0.686,1.777,1.035c1.553,0.922,3.159,1.874,4.86,2.509c1.53,0.571,4.485,1.336,7.075,0.029
								c2.602-1.31,4.156-4.633,3.695-7.899c-0.4-2.831-2.143-5.627-4.907-7.872c-0.693-0.563-1.443-1.091-2.169-1.601
								c-1.243-0.874-2.528-1.778-3.604-2.908c-1.545-1.623-2.996-4.436-1.999-7.023c1.102-2.858,4.617-3.924,7.365-3.478
								c3.59,0.586,6.392,3.015,9.101,5.364c1.412,1.225,2.871,2.49,4.423,3.478c3.463,2.205,7.869,3.263,12.407,2.978l0.047,0.748
								c-4.695,0.305-9.261-0.804-12.857-3.093c-1.599-1.019-3.08-2.303-4.512-3.544c-2.752-2.387-5.35-4.64-8.73-5.191
								c-2.457-0.396-5.585,0.518-6.543,3.007c-0.871,2.261,0.449,4.772,1.842,6.236c1.025,1.076,2.28,1.959,3.493,2.813
								c0.736,0.518,1.497,1.053,2.21,1.632c2.912,2.365,4.751,5.33,5.177,8.349c0.505,3.576-1.219,7.225-4.1,8.675
								C102.759,434.18,101.534,434.39,100.382,434.39z"/>
						</g>
						<g>
							<path style="fill:#FFFFFF;" d="M70.382,405.83c-1.048,0-2.117-0.236-3.099-0.714c-1.959-0.951-3.547-2.808-4.359-5.094
								l0.707-0.25c0.746,2.102,2.197,3.804,3.98,4.67c1.942,0.944,4.261,0.834,5.905-0.28c2.264-1.537,2.901-4.663,2.528-7.078
								c-0.42-2.721-1.906-5.261-3.217-7.502l0.647-0.379c1.345,2.299,2.869,4.905,3.311,7.766c0.5,3.232-0.618,6.3-2.848,7.814
								C72.914,405.478,71.663,405.83,70.382,405.83z"/>
						</g>
						<g>
							<path style="fill:#FFFFFF;" d="M88.634,450.632c-1.271-1.688-2.584-3.435-4.236-4.784c-1.805-1.475-3.809-2.255-5.687-2.18
								c-2.157,0.079-4.094,1.39-4.71,3.185l-0.709-0.244c0.714-2.082,2.931-3.6,5.392-3.691c2.044-0.068,4.242,0.759,6.188,2.35
								c1.722,1.406,3.064,3.189,4.361,4.913L88.634,450.632z"/>
						</g>
					</g>
				</g>
			</g>
			<g>
				<g>
					<path style="fill:#B6E585;" d="M480.279,351.366c5.163-6.958,12.411-13.131,21.042-13.891
						c8.536-0.751,16.858,4.093,22.163,10.823c5.305,6.73,8.026,15.123,9.943,23.475c2.326,10.136,3.62,20.508,3.854,30.905
						c-3.257-12.272-9.009-23.393-16.554-33.604c-2.627-3.555-5.531-6.978-9.15-9.517c-3.619-2.539-8.039-4.142-12.44-3.729
						c-6.82,0.641-12.296,5.845-16.456,11.287c-8.115,10.615-13.482,23.312-15.441,36.53l-5.669-0.257
						C465.245,385.167,469.203,366.292,480.279,351.366z"/>
					<path style="fill:#B6E585;" d="M389.923,337.046c3.711-8.928,10.162-18.161,19.761-19.318
						c5.328-0.642,10.718,1.443,14.974,4.712c4.257,3.268,7.524,7.641,10.491,12.113c13.528,20.39,21.929,44.153,24.222,68.515
						l-2.205,6.117c-8.265-21.04-18.381-41.608-32.747-59.06c-2.221-2.698-4.591-5.36-7.587-7.158
						c-2.997-1.798-6.745-2.638-10.039-1.47c-4.282,1.518-6.766,5.888-8.762,9.97c-7.072,14.461-14.328,28.613-18.519,44.155
						C380.846,375.741,382.275,355.445,389.923,337.046z"/>
					<path style="fill:#B6E585;" d="M399.763,371.068c1.729-4.755,4.397-9.639,9.032-11.669c3.748-1.642,8.188-1.066,11.878,0.705
						c3.689,1.77,6.744,4.619,9.565,7.583c7.825,8.224,14.334,17.696,19.206,27.949l-4.999,2.031
						c-4.417-8.916-10.522-16.992-17.895-23.674c-4.146-3.757-9.858-7.258-15.026-5.113c-3.884,1.612-5.907,5.85-7.281,9.825
						c-3.401,9.838-6.234,19.676-5.86,30.078C394.902,396.478,395.393,383.084,399.763,371.068z"/>
					<path style="fill:#B6E585;" d="M469.671,310.859c2.773-6.341,6.413-12.837,12.569-16c6.283-3.229,14.205-2.205,20.212,1.513
						c6.007,3.718,10.26,9.795,13.005,16.304c2.745,6.509,4.12,13.499,5.477,20.432c-3.169-7.546-7.891-14.829-13.949-20.334
						s-15.652-8.024-22.545-3.61c-4.739,3.035-7.204,8.54-9.137,13.824c-9.079,24.823-12.027,51.503-12.466,77.931l-4.798-0.267
						C455.304,370.272,457.447,338.806,469.671,310.859z"/>
					<path style="fill:#B6E585;" d="M486.312,372.397c3.203-3.409,7.787-6.129,12.375-5.221c2.628,0.52,4.923,2.187,6.646,4.237
						c1.724,2.05,2.935,4.476,4.046,6.913c5.583,12.252,9.035,25.626,8.746,39.087c-3.853-12.108-9.351-23.638-15.337-34.846
						c-0.83-1.555-1.694-3.118-2.916-4.388c-1.222-1.27-2.86-2.231-4.622-2.281c-2.923-0.082-5.315,2.258-7.043,4.617
						c-3.262,4.456-5.542,9.627-6.632,15.04l-6.823,2.402C477.186,388.823,479.838,379.286,486.312,372.397z"/>
				</g>
				<polygon style="fill:#A9A8F0;" points="442.456,447.29 476.287,447.29 488.959,392.388 429.785,392.388 				"/>
				<g>
					<defs>
						<polygon id="SVGID_00000158712356370224112160000012856015251622413703_" points="442.456,447.29 476.287,447.29
							488.959,392.388 429.785,392.388 						"/>
					</defs>
					<clipPath id="SVGID_00000137131964947708176010000004078537848651970960_">
						<use xlink:href="#SVGID_00000158712356370224112160000012856015251622413703_"  style="overflow:visible;"/>
					</clipPath>
					<g style="clip-path:url(#SVGID_00000137131964947708176010000004078537848651970960_);">
						<g>
							<path style="fill:#FFFFFF;" d="M475.872,419.213c0.436,0,0.884-0.023,1.345-0.07c6.92-0.702,13.262-5.53,15.781-12.015
								l-0.699-0.271c-2.419,6.228-8.511,10.865-15.158,11.54c-1.414,0.143-4.892,0.231-6.636-2.051
								c-1.252-1.638-1.15-3.887-0.844-5.484c0.168-0.872,0.419-1.75,0.662-2.599c0.303-1.06,0.617-2.154,0.78-3.274
								c0.847-5.822-2.783-12.029-8.444-14.439c-5.353-2.276-12.092-1.131-16.773,2.849c-1.963,1.67-3.564,3.771-5.112,5.802
								c-2.201,2.887-4.279,5.613-7.322,7.248c-4.465,2.398-10.364,1.595-14.022-1.917l-0.52,0.541
								c3.888,3.729,10.152,4.586,14.897,2.036c3.185-1.711,5.41-4.631,7.563-7.454c1.524-1.999,3.1-4.066,5.002-5.684
								c4.47-3.803,10.897-4.898,15.993-2.731c5.358,2.28,8.795,8.145,7.996,13.642c-0.156,1.069-0.462,2.14-0.759,3.175
								c-0.247,0.865-0.503,1.76-0.677,2.665c-0.335,1.748-0.436,4.223,0.985,6.08C471.102,418.362,473.234,419.213,475.872,419.213
								z"/>
						</g>
						<g>
							<path style="fill:#FFFFFF;" d="M447.791,450.03c0.903,0,1.806-0.125,2.679-0.38c3.534-1.034,6.088-3.906,8.321-6.854
								l0.683-0.909c1.894-2.529,3.852-5.145,6.562-6.7c3.625-2.079,8.395-1.916,11.87,0.405c3.475,2.322,5.45,6.667,4.915,10.811
								l0.744,0.096c0.57-4.42-1.537-9.055-5.242-11.53c-3.706-2.477-8.793-2.651-12.66-0.433c-2.844,1.631-4.85,4.311-6.789,6.901
								l-0.68,0.905c-2.156,2.847-4.608,5.614-7.934,6.587c-2.531,0.743-5.343,0.294-7.52-1.196
								c-2.177-1.489-3.612-3.948-3.838-6.576c-0.254-2.95,0.965-5.829,2.145-8.612c0.201-0.474,0.4-0.946,0.593-1.417
								c1.841-4.504,2.04-7.98,0.608-10.627c-1.076-1.988-3.139-3.505-5.662-4.159c-2.016-0.521-4.314-0.53-7.026-0.021l0.138,0.736
								c2.602-0.485,4.793-0.484,6.7,0.012c2.322,0.602,4.213,1.983,5.19,3.79c1.318,2.436,1.108,5.702-0.643,9.986
								c-0.191,0.468-0.39,0.936-0.589,1.407c-1.215,2.868-2.471,5.834-2.201,8.97c0.246,2.85,1.801,5.516,4.162,7.131
								C443.925,449.454,445.856,450.03,447.791,450.03z"/>
						</g>
						<g>
							<path style="fill:#FFFFFF;" d="M454.228,434.39c1.655,0,3.16-0.433,4.13-0.794c1.763-0.658,3.398-1.629,4.979-2.566
								c0.585-0.348,1.17-0.694,1.762-1.026c4.102-2.301,7.987-3.477,11.548-3.496c4.35-0.044,8.32,1.753,10.595,4.751l0.598-0.453
								c-2.402-3.165-6.55-5.048-11.11-5.048c-0.029,0-0.058,0-0.086,0c-3.741,0.021-7.638,1.195-11.911,3.592
								c-0.597,0.335-1.187,0.686-1.777,1.035c-1.553,0.922-3.159,1.874-4.86,2.509c-1.53,0.571-4.485,1.336-7.075,0.029
								c-2.602-1.31-4.156-4.633-3.695-7.899c0.4-2.831,2.143-5.627,4.907-7.872c0.693-0.563,1.443-1.091,2.169-1.601
								c1.243-0.874,2.528-1.778,3.604-2.908c1.545-1.623,2.996-4.436,2-7.023c-1.102-2.858-4.617-3.924-7.365-3.478
								c-3.59,0.586-6.392,3.015-9.101,5.364c-1.412,1.225-2.871,2.49-4.423,3.478c-3.463,2.205-7.869,3.263-12.407,2.978
								l-0.047,0.748c4.695,0.305,9.261-0.804,12.857-3.093c1.599-1.019,3.08-2.303,4.512-3.544c2.751-2.387,5.35-4.64,8.73-5.191
								c2.457-0.396,5.585,0.518,6.543,3.007c0.871,2.261-0.449,4.772-1.842,6.236c-1.025,1.076-2.28,1.959-3.493,2.813
								c-0.736,0.518-1.497,1.053-2.21,1.632c-2.912,2.365-4.75,5.33-5.177,8.349c-0.505,3.576,1.219,7.225,4.1,8.675
								C451.85,434.18,453.075,434.39,454.228,434.39z"/>
						</g>
						<g>
							<path style="fill:#FFFFFF;" d="M484.227,405.83c1.048,0,2.117-0.236,3.099-0.714c1.958-0.951,3.547-2.808,4.359-5.094
								l-0.707-0.25c-0.746,2.102-2.197,3.804-3.98,4.67c-1.942,0.944-4.261,0.834-5.905-0.28c-2.264-1.537-2.901-4.663-2.528-7.078
								c0.42-2.721,1.906-5.261,3.217-7.502l-0.647-0.379c-1.345,2.299-2.869,4.905-3.311,7.766c-0.499,3.232,0.618,6.3,2.848,7.814
								C481.695,405.478,482.946,405.83,484.227,405.83z"/>
						</g>
						<g>
							<path style="fill:#FFFFFF;" d="M465.976,450.632c1.271-1.688,2.584-3.435,4.236-4.784c1.805-1.475,3.809-2.255,5.686-2.18
								c2.157,0.079,4.094,1.39,4.71,3.185l0.709-0.244c-0.714-2.082-2.931-3.6-5.392-3.691c-2.044-0.068-4.242,0.759-6.188,2.35
								c-1.722,1.406-3.064,3.189-4.361,4.913L465.976,450.632z"/>
						</g>
					</g>
				</g>
			</g>
			<path style="fill:#FBECDD;" d="M242.585,155.664c13.116,7.021,29.233,8.184,43.222,3.119c6.376-2.309,12.539-6.084,15.96-11.938
				c3.421-5.855,3.362-14.067-1.456-18.838c-5.454-5.401-14.405-4.674-21.771-2.514c-7.365,2.16-14.926,5.409-22.432,3.806
				c-5.248-1.121-9.682-4.483-14.097-7.533c-7.635-5.274-27.462-10.471-24.108,5.372
				C220.413,138.994,232.386,150.204,242.585,155.664z"/>
			<path style="fill:#FBECDD;" d="M420.172,330.297c-1.021,7.407-1.149,15.089,1.113,22.215c2.262,7.126,7.182,13.661,14.072,16.564
				c6.89,2.902,15.739,1.477,20.465-4.316c5.087-6.236,4.375-15.351,2.201-23.099c-2.174-7.749-5.571-15.444-4.989-23.47
				c0.626-8.636,5.746-16.191,8.91-24.251c2.428-6.184,4.88-17.899-2.345-22.063c-7.306-4.21-13.772,5.059-17.82,9.911
				C430.299,295.55,422.622,312.522,420.172,330.297z"/>
			<path style="fill:#FBECDD;" d="M77.461,299.204c-0.529,9.546-3.29,19.61-10.564,25.815c-7.274,6.204-19.92,6.547-25.465-1.241
				c-5.39-7.57-1.966-18.084,2.277-26.352c4.243-8.267,9.316-17.424,6.607-26.313c-2.329-7.641-15.521-16.721-12.413-25.412
				c2.324-6.498,11.79-6.126,16.777-3.375C71.677,251.706,78.434,281.655,77.461,299.204z"/>
			<path style="fill:#FBECDD;" d="M328.274,120.014c2.547,3.229,7.01,4.47,11.104,4.075c5.783-0.559,11.247-4.235,13.644-9.527
				c2.397-5.292,1.459-12.014-2.536-16.233C338.072,85.221,319.547,108.949,328.274,120.014z"/>
			<path style="fill:#FBECDD;" d="M42.217,211.809c-1.065-4.501-5.959-7.725-10.515-6.926l-2.069,0.62
				c-4.243,1.841-6.555,7.226-4.968,11.57s6.827,6.97,11.257,5.641C40.353,221.385,43.282,216.309,42.217,211.809z"/>
			<path style="fill:#FBECDD;" d="M469.198,243.308c4.307-1.592,9.674,0.867,11.282,5.168c1.608,4.301-0.83,9.677-5.125,11.301
				c-4.295,1.624-9.68-0.793-11.321-5.082c-1.641-4.289,0.757-9.683,5.039-11.34"/>
		</g>
		<g style="clip-path:url(#SVGID_00000148632671484409225380000012540699058840375682_);">
			<path style="fill:#F3B645;" d="M221.79,366.701c-0.143-3.231,0.677-6.635,2.894-8.99c2.324-2.469,5.934-3.471,9.307-3.129
				c3.374,0.342,6.528,1.896,9.273,3.887c1.926,1.396,3.847,3.083,6.215,3.306c2.292,0.216,4.439-0.996,6.629-1.708
				c4.782-1.555,10.299-0.627,14.309,2.407c4.01,3.034,6.402,8.091,6.205,13.116l-52.663,0.534
				C222.938,373.055,221.933,369.932,221.79,366.701z"/>
			<path style="fill:#6885CD;" d="M197.684,381.779c-1.983-1.917-2.436-5.111-1.407-7.67c1.029-2.559,3.352-4.468,5.954-5.383
				c2.602-0.915,5.456-0.916,8.171-0.43c2.983,0.534,5.953,1.644,8.958,1.25c5.678-0.745,9.477-6.5,14.982-8.076
				c4.188-1.199,8.83,0.293,12.164,3.097c3.333,2.804,5.508,6.763,7.017,10.85c-9.06,5.049-18.809,9.714-29.129,10.743
				C215.731,387.024,203.942,387.828,197.684,381.779z"/>
			<path style="fill:#B6E585;" d="M241.576,383.451c-0.319-3.052-0.13-6.215,1.045-9.05c1.174-2.835,3.423-5.31,6.327-6.304
				c2.875-0.984,6.063-0.45,8.926,0.569c2.863,1.019,5.545,2.504,8.422,3.484c2.877,0.98,6.092,1.425,8.924,0.324
				c3.03-1.178,5.162-3.922,7.971-5.557c4.06-2.363,9.508-2.078,13.299,0.697c3.791,2.774,5.711,7.881,4.686,12.466
				c-17.471,1.149-34.559,6.45-52.067,6.674C246.104,386.792,243.635,385.641,241.576,383.451z"/>

				<rect x="217.643" y="375.468" transform="matrix(-1 -1.224647e-16 1.224647e-16 -1 518.5486 822.9252)" style="fill:#AD5B37;" width="83.263" height="71.988"/>

				<rect x="195.742" y="375.468" transform="matrix(-1 -1.224647e-16 1.224647e-16 -1 452.0919 822.9252)" style="fill:#D67145;" width="60.607" height="71.988"/>

				<rect x="222.872" y="375.468" transform="matrix(-1 -1.224647e-16 1.224647e-16 -1 452.0919 822.9252)" style="fill:#D69376;" width="6.348" height="71.988"/>

				<rect x="277.404" y="375.468" transform="matrix(-1 -1.224647e-16 1.224647e-16 -1 561.1576 822.9252)" style="fill:#D98764;" width="6.349" height="71.988"/>
			<polygon style="fill:#AD5B37;" points="185.492,399.814 246.098,399.814 256.349,375.468 195.742,375.468 			"/>
			<polygon style="fill:#D67145;" points="311.157,399.814 266.6,399.814 256.349,375.468 300.906,375.468 			"/>
		</g>
		<g style="clip-path:url(#SVGID_00000148632671484409225380000012540699058840375682_);">
			<rect x="345.907" y="401.833" style="fill:#AD5B37;" width="93.673" height="45.624"/>
			<rect x="396.034" y="401.833" style="fill:#D67145;" width="68.184" height="45.624"/>
			<rect x="426.555" y="401.833" style="fill:#D69376;" width="7.142" height="45.624"/>
			<rect x="365.205" y="401.833" style="fill:#D98764;" width="7.142" height="45.624"/>
		</g>
		<g style="clip-path:url(#SVGID_00000148632671484409225380000012540699058840375682_);">

				<rect x="372.508" y="360.011" transform="matrix(-1 -1.224647e-16 1.224647e-16 -1 808.8613 761.8442)" style="fill:#AD5B37;" width="63.845" height="41.822"/>

				<rect x="355.715" y="360.011" transform="matrix(-1 -1.224647e-16 1.224647e-16 -1 757.9031 761.8442)" style="fill:#D67145;" width="46.473" height="41.822"/>

				<rect x="376.517" y="360.011" transform="matrix(-1 -1.224647e-16 1.224647e-16 -1 757.903 761.8442)" style="fill:#D69376;" width="4.868" height="41.822"/>

				<rect x="418.333" y="360.011" transform="matrix(-1 -1.224647e-16 1.224647e-16 -1 841.5334 761.8442)" style="fill:#D98764;" width="4.868" height="41.822"/>
		</g>
		<g style="clip-path:url(#SVGID_00000148632671484409225380000012540699058840375682_);">
			<rect x="382.712" y="329.063" style="fill:#AD5B37;" width="53.483" height="30.949"/>
			<rect x="411.332" y="329.063" style="fill:#D67145;" width="38.93" height="30.949"/>
			<rect x="428.758" y="329.063" style="fill:#D69376;" width="4.078" height="30.949"/>
			<rect x="393.73" y="329.063" style="fill:#D98764;" width="4.078" height="30.949"/>
		</g>
		<g style="clip-path:url(#SVGID_00000148632671484409225380000012540699058840375682_);">

				<rect x="405.348" y="419.736" transform="matrix(0.9923 -0.1242 0.1242 0.9923 -49.4394 56.6079)" style="fill:#F2F2F2;" width="48.104" height="10.362"/>

				<text transform="matrix(0.9923 -0.1242 0.1242 0.9923 409.6578 429.5298)" style="fill:#B3B3B3; font-family:'Montserrat-Bold'; font-size:6.8726px;">DONATION</text>
		</g>
		<path style="clip-path:url(#SVGID_00000148632671484409225380000012540699058840375682_);fill:#F78D7D;" d="M276.71,236.566
			c-0.066-1.894-0.296-3.675-0.643-5.39c-0.343-1.697-1.179-3.443-2.637-4.376c-0.728-0.466-1.616-0.764-2.457-0.567
			c-0.469,0.11-0.896,0.414-1.167,0.807c-2.194-1.994-3.967-4.493-5.921-6.784c-0.404-0.473-0.865-0.889-1.353-1.274
			c-0.198-0.156-0.409-0.298-0.651-0.365c-0.266-0.074-0.576-0.043-0.78,0.143c-0.205,0.186-0.266,0.492-0.222,0.766
			c0.044,0.274,0.179,0.523,0.315,0.764c1.384,2.45,3.022,4.536,4.575,7.252c-0.008-0.002-0.017-0.002-0.026-0.004
			c-1.705-1.149-3.171-2.559-4.87-3.81c-0.501-0.369-0.958-0.788-1.486-1.116c-0.214-0.133-0.44-0.25-0.687-0.291
			c-0.272-0.044-0.577,0.022-0.76,0.229c-0.183,0.208-0.21,0.519-0.136,0.786c0.074,0.267,0.218,0.514,0.398,0.725
			c1.578,1.844,3.197,3.256,5.223,5.013c-0.001,0.006-0.002,0.011-0.002,0.017c-0.578,0.116-1.296,0.71-1.573,1.231
			c-0.276,0.52-0.272,1.157-0.045,1.701c-0.195,0.066-0.929,0.776-0.961,0.98c-0.315,2.01,1.24,3.583,2.78,4.911
			c1.403,1.209,3.155,1.915,4.926,2.477c0.041,0.076,0.067,0.156,0.113,0.229l6.955,11.146c2.069-0.896,4.07-1.783,5.929-2.585
			c1.543-0.666,3.068-1.361,4.576-2.088L276.71,236.566z"/>
		<path style="clip-path:url(#SVGID_00000148632671484409225380000012540699058840375682_);fill:#B54E71;" d="M292.257,280.411
			l0.435,0.696c2.534,4.05,7.966,5.111,11.837,2.311l0.336-0.243C301.666,280.246,296.685,279.548,292.257,280.411z"/>
		<polygon style="clip-path:url(#SVGID_00000148632671484409225380000012540699058840375682_);fill:#B54E71;" points="
			284.59,242.387 272.654,250.941 270.466,248.852 282.601,240.248 		"/>

			<path style="clip-path:url(#SVGID_00000148632671484409225380000012540699058840375682_);fill:none;stroke:#B54E71;stroke-miterlimit:10;" d="
			M300.529,262.969c-0.447,2.824-0.708,5.677-0.781,8.535"/>
		<path style="clip-path:url(#SVGID_00000148632671484409225380000012540699058840375682_);fill:#D2675D;" d="M281.011,241.376
			c0,0-8.196,5.899-8.234,5.838c-0.038-0.061-1.652-2.647-1.652-2.647l8.658-4.563L281.011,241.376z"/>
		<g style="clip-path:url(#SVGID_00000148632671484409225380000012540699058840375682_);">
			<g>
				<path style="fill:#C15538;" d="M67.524,417.697l35.381-50.003l-2.018,4.121c0.34-5.188,1.09-10.278,1.933-15.345
					c0.869-5.061,1.891-10.086,3.044-15.079c1.15-4.994,2.443-9.954,3.888-14.877c1.467-4.918,3.037-9.811,5.02-14.606
					c2.343-5.663,8.833-8.355,14.496-6.012c4.551,1.883,7.179,6.46,6.821,11.118c-0.404,5.173-1.222,10.246-2.142,15.295
					c-0.943,5.044-2.037,10.051-3.275,15.024c-1.234,4.974-2.6,9.916-4.118,14.822c-1.545,4.899-3.182,9.777-5.23,14.556
					l-1.258,2.936c-0.189,0.441-0.456,0.847-0.76,1.186l-41.075,45.442c-2.545,2.816-6.891,3.035-9.706,0.49
					C65.915,424.405,65.537,420.497,67.524,417.697z"/>
			</g>
			<polygon style="fill:#A64930;" points="101.385,366.361 119.379,370.496 120.955,376.846 101.073,369.426 			"/>
			<path style="fill:#495FA8;" d="M135.845,327.551c0,0-5.206,25.442-9.934,43.288l-26.196-5.797l6.658-40.763l16.849-4.892
				L135.845,327.551z"/>
			<polygon style="fill:#3E508F;" points="98.714,362.087 127.324,368.628 126.467,372.066 98.427,365.688 			"/>
			<path style="fill:#1B141C;" d="M123.002,188.307c1.258,0.446,2.637,0.687,3.93,0.354c1.293-0.333,2.47-1.339,2.711-2.652
				c0.237-1.286-0.453-2.646-1.371-3.577c1.215,0.046,2.597,0.026,3.418-0.87c0.754-0.822,0.738-2.101,0.418-3.17
				c-0.627-2.092-2.245-3.821-4.21-4.773c-1.965-0.952-4.143-1.286-6.296-0.919c0.769-0.934,1.545-1.893,1.975-3.024
				c0.431-1.13,0.466-2.479-0.203-3.487c-0.646-0.972-1.825-1.462-2.978-1.641c-1.975-0.307-4.012,0.146-5.829,0.978
				c-1.818,0.831-3.237,2.04-4.806,3.278c-0.261-1.662-0.644-3.519-2.05-4.442c-0.903-0.592-2.082-0.658-3.121-0.362
				c-1.039,0.295-1.957,0.917-2.78,1.617c-3.365,2.866-5.276,7.125-5.225,11.545c-0.672-1.093-1.507-2.296-2.778-2.468
				c-0.785-0.106-1.584,0.233-2.173,0.762c-0.59,0.529-0.997,1.231-1.328,1.951c-1.762,3.82-1.666,8.268,0.415,11.923
				c-0.284-1.101-1.691-1.652-2.753-1.243c-1.061,0.409-1.721,1.539-1.836,2.67c-0.115,1.131,0.231,2.261,0.69,3.301
				c1.842,4.174,5.685,7.433,10.126,8.476c2.612,0.613,5.03,0.26,7.53-0.714c2.5-0.974,4.768-2.456,6.951-4.015
				C115.319,195.026,119.554,191.618,123.002,188.307z"/>
			<path style="fill:#D06C54;" d="M172.771,180.251l-20.578-41.45c-1.414-2.857-4.771-4.275-7.854-3.191
				c-3.334,1.173-5.086,4.826-3.913,8.159l14.064,39.987c-2.324,2.305-4.6,4.65-6.853,7.017c-1.716,1.806-3.419,3.623-5.093,5.465
				c-1.693,1.825-3.353,3.68-5.004,5.541c-3.333,3.697-6.552,7.492-9.722,11.329c-3.13,3.872-6.218,7.779-9.051,11.907
				c-2.615,3.808-2.341,9.054,0.942,12.571c3.796,4.067,10.17,4.287,14.237,0.492c3.66-3.416,7.063-7.052,10.426-10.724
				c3.322-3.707,6.595-7.455,9.754-11.302c1.594-1.91,3.181-3.828,4.734-5.774c1.572-1.93,3.115-3.885,4.645-5.85
				c2.886-3.715,5.729-7.466,8.433-11.336C169.855,188.613,170.825,184.194,172.771,180.251z"/>
			<path style="fill:#C15538;" d="M173.353,191.064c1.658-2.41,1.995-5.623,0.602-8.429l-1.183-2.384
				c-1.946,3.943-2.916,8.361-0.834,12.841c0.16-0.229,0.325-0.455,0.485-0.685L173.353,191.064z"/>
			<g>
				<path style="fill:#F06795;" d="M134.009,89.156c0.114-2.574-0.54-5.285-2.305-7.161c-1.851-1.967-4.727-2.765-7.414-2.492
					c-2.687,0.272-5.2,1.511-7.386,3.096c-1.534,1.112-3.064,2.456-4.951,2.634c-1.826,0.172-3.536-0.793-5.28-1.361
					c-3.809-1.239-8.204-0.5-11.398,1.917c-3.194,2.417-5.1,6.445-4.943,10.448l41.948,0.425
					C133.094,94.217,133.895,91.729,134.009,89.156z"/>
				<path style="fill:#F99746;" d="M153.211,101.166c1.58-1.527,1.941-4.071,1.121-6.109c-0.82-2.038-2.67-3.559-4.742-4.288
					c-2.072-0.729-4.346-0.729-6.508-0.342c-2.377,0.425-4.742,1.31-7.136,0.995c-4.523-0.593-7.549-5.178-11.934-6.433
					c-3.336-0.955-7.034,0.233-9.689,2.467c-2.655,2.234-4.387,5.387-5.589,8.642c7.217,4.022,14.982,7.737,23.203,8.557
					C138.835,105.344,148.226,105.984,153.211,101.166z"/>
				<path style="fill:#536CC0;" d="M118.248,102.498c0.254-2.431,0.104-4.951-0.832-7.209c-0.935-2.258-2.727-4.23-5.04-5.021
					c-2.29-0.784-4.829-0.358-7.11,0.453c-2.281,0.812-4.417,1.995-6.709,2.775c-2.292,0.78-4.852,1.135-7.108,0.258
					c-2.413-0.938-4.112-3.124-6.35-4.427c-3.234-1.882-7.574-1.655-10.594,0.555c-3.02,2.21-4.549,6.278-3.732,9.93
					c13.917,0.915,27.528,5.138,41.474,5.316C114.642,105.159,116.609,104.242,118.248,102.498z"/>
				<rect x="70.989" y="96.139" style="fill:#AD5B37;" width="66.324" height="57.343"/>
				<rect x="106.481" y="96.139" style="fill:#D67145;" width="48.277" height="57.343"/>
				<rect x="128.091" y="96.139" style="fill:#D69376;" width="5.057" height="57.343"/>
				<rect x="84.652" y="96.139" style="fill:#D98764;" width="5.057" height="57.343"/>
				<polygon style="fill:#AD5B37;" points="162.923,115.532 114.646,115.532 106.481,96.139 154.757,96.139 				"/>
				<polygon style="fill:#D67145;" points="62.824,115.532 98.315,115.532 106.481,96.139 70.989,96.139 				"/>
				<g>

						<rect x="113.198" y="127.007" transform="matrix(0.9923 -0.1242 0.1242 0.9923 -15.2351 17.2945)" style="fill:#F2F2F2;" width="35.854" height="7.723"/>

						<text transform="matrix(0.9923 -0.1242 0.1242 0.9923 116.4129 134.31)" style="fill:#333333; font-family:'Montserrat-Bold'; font-size:5.1224px;">DONATION</text>
				</g>
			</g>
			<rect x="103.653" y="207.635" style="fill:#D06C54;" width="15.85" height="21.37"/>
			<path style="fill:#C15538;" d="M119.503,207.635v6.61c-3.61,0.15-11.89-0.23-15.26-6.58l2.32-0.03H119.503z"/>
			<path style="fill:#D06C54;" d="M134.273,292.25h-43.39l-1.728-58.888c-0.156-5.3,2.735-10.016,7.097-11.495l15.612-5.297
				l16.888,5.394c4.437,1.417,7.403,6.174,7.246,11.541L134.273,292.25z"/>
			<path style="fill:#D06C54;" d="M129.586,327.241H95.57c-4.649,0-8.088-6.036-7.367-12.813l2.796-26.288h43.157l2.796,26.288
				C137.674,321.206,134.235,327.241,129.586,327.241z"/>
			<path style="fill:#C15538;" d="M54.702,186.135l-1.33,3.284c-0.94,2.372-0.747,5.199,0.795,7.468l1.053,1.549
				c0.217,0.32,0.442,0.633,0.662,0.951C57.902,194.978,56.661,190.195,54.702,186.135z"/>
			<path style="fill:#D06C54;" d="M104.896,226.087c-2.506-3.722-5.268-7.221-8.071-10.685c-2.844-3.429-5.735-6.816-8.74-10.105
				c-1.488-1.657-2.983-3.307-4.513-4.928c-1.51-1.638-3.049-3.25-4.601-4.852c-2.067-2.128-4.158-4.236-6.298-6.3l11.622-48.332
				c0.601-2.486-0.692-5.105-3.134-6.094c-2.688-1.088-5.749,0.208-6.837,2.896l-19.621,48.449c1.958,4.06,3.2,8.843,1.18,13.252
				c2.329,3.367,4.782,6.626,7.277,9.85c1.367,1.762,2.746,3.514,4.155,5.239c1.389,1.743,2.812,3.456,4.243,5.163
				c2.832,3.439,5.778,6.779,8.772,10.077c3.035,3.263,6.11,6.491,9.441,9.496c3.359,3.031,8.471,3.519,12.393,0.878
				C106.785,236.977,108.008,230.708,104.896,226.087z"/>
			<path style="fill:#D06C54;" d="M133,367c0.602-1.203,0.845-2.405,1.594-3.39c-1.335-3.793-2.851-7.493-4.425-11.164
				c-2.048-4.709-4.236-9.346-6.544-13.922c-2.305-4.577-4.741-9.087-7.316-13.525c-2.595-4.427-5.284-8.807-8.351-12.992
				c-2.767-3.764-7.744-5.521-12.422-3.98c-5.821,1.917-8.986,8.19-7.068,14.012c1.623,4.928,3.625,9.661,5.72,14.346
				c2.116,4.674,4.37,9.277,6.755,13.813c2.382,4.537,4.884,9.013,7.527,13.416c2.419,3.982,4.921,7.921,7.695,11.721l5.479,57.713
				c0.321,3.419,3.155,6.134,6.673,6.22c3.794,0.093,6.945-2.907,7.038-6.702l1.329-54.229C132.838,376.035,132.096,371.522,133,367
				z"/>
			<path style="fill:#C15538;" d="M136.684,378.338l0.172-7.007c0.009-0.455-0.053-0.937-0.197-1.395l-0.961-3.046
				c-0.348-1.104-0.721-2.195-1.104-3.281c-0.749,0.986-0.992,2.187-1.594,3.39C132.096,371.522,132.838,376.035,136.684,378.338z"
				/>
			<path style="fill:#D06C54;" d="M127.5,192.492c0-10.472-7.004-18.961-15.644-18.961s-15.644,8.489-15.644,18.961
				c0,3.275,0.692,6.558,2.114,9.513c1.278,2.657,3.154,5.056,5.558,6.783c1.494,1.073,3.245,1.896,5.047,2.279
				c1.198,0.255,2.489,0.2,3.708,0.217c1.338,0.018,2.676,0.001,4.012-0.052c1.555-0.062,3.198-0.139,4.683-0.647
				c1.315-0.45,2.523-1.247,3.468-2.264c1.626-1.749,2.522-4.094,2.522-6.479v-6.662C127.429,194.301,127.5,193.408,127.5,192.492z"
				/>
			<g>
				<path style="fill:#D06C54;" d="M99.695,192.361c-0.561-0.999-1.916-1.573-3.197-1.479c-1.28,0.094-2.445,0.79-3.147,1.72
					c-0.702,0.93-0.973,2.069-0.931,3.178c0.043,1.145,0.422,2.303,1.231,3.21c0.81,0.908,2.08,1.536,3.407,1.532
					s2.658-0.708,3.119-1.782L99.695,192.361z"/>
				<g>

						<path style="fill:none;stroke:#C15538;stroke-width:0.6854;stroke-linecap:round;stroke-linejoin:round;stroke-miterlimit:10;" d="
						M96.665,198.522c1.014-1.885,0.867-4.149-0.386-5.939"/>

						<path style="fill:none;stroke:#C15538;stroke-width:0.6854;stroke-linecap:round;stroke-linejoin:round;stroke-miterlimit:10;" d="
						M97.039,195.169c-1.066,0.469-1.893,1.278-2.26,2.21"/>
				</g>
			</g>
			<g>
				<path style="fill:#1B141C;" d="M120.317,433.961c0,0.108,0,0.226,0.009,0.343c0.009,0.704,0.054,1.463,0.09,2.231
					c0.036,0.542,0.072,1.084,0.108,1.634c0.063,0.777,0.126,1.563,0.199,2.33c0.145,1.671,0.316,3.242,0.461,4.516
					c0.199,1.788,0.352,2.98,0.352,2.98l39.132-0.027c0,0,1.111-1.273,0.009-2.953c-1.608-2.502-4.606-5.924-9.591-7.586
					c-5.473-1.833-8.778-4.254-11-6.665c-0.063-0.081-0.135-0.144-0.19-0.226c-0.677-0.732-1.228-1.481-1.725-2.204
					c-0.063-0.072-0.117-0.163-0.162-0.244c-0.253-0.388-0.479-0.759-0.713-1.12c-0.822-1.355-2.095-0.759-3.36,0.479
					c-2.691,2.637-6.755,3.368-10.214,1.878c-1.111-0.488-2.095-0.749-2.664-0.551c-0.397,0.154-0.614,1.066-0.695,2.42
					C120.308,431.983,120.299,432.931,120.317,433.961z"/>
				<path style="fill:#D5D5D1;" d="M121.184,445.01c-0.119,1.783-0.105,2.99-0.105,2.99l39.598-0.033c0,0,1.108-1.272-0.001-2.957
					H121.184z"/>
				<path style="fill:#D5D5D1;" d="M135.1,431.108l1.183,1.518c0.197,0.257,0.572,0.296,0.819,0.099l2.79-2.189
					c-0.67-0.73-1.223-1.479-1.725-2.199c-0.059-0.079-0.108-0.168-0.158-0.246l-2.81,2.199
					C134.943,430.487,134.893,430.862,135.1,431.108z"/>
				<path style="fill:#D5D5D1;" d="M120.317,433.961c0,0.108,0,0.226,0.009,0.343l0.885,0.108c0.325,0.045,0.623-0.19,0.65-0.506
					l0.235-1.915c0.045-0.325-0.19-0.614-0.506-0.65l-1.228-0.144C120.308,431.983,120.299,432.931,120.317,433.961z"/>
				<path style="fill:#D5D5D1;" d="M132.363,438.09c0,1.64-1.329,2.969-2.969,2.969c-1.64,0-2.969-1.329-2.969-2.969
					c0-1.64,1.329-2.969,2.969-2.969C131.034,435.121,132.363,436.451,132.363,438.09z"/>
			</g>
			<g>
				<g>
					<path style="fill:#1B141C;" d="M93.361,445.9c-0.04-0.06-0.09-0.13-0.15-0.2c-1.61-1.93-4.6-4.57-9.59-5.85
						c-0.814-0.211-1.571-0.433-2.287-0.662l0,0c-0.992-3.062-1.272-5.667-1.181-7.902c0.013-0.102,0.006-0.198,0.026-0.294
						c0.038-0.996,0.179-1.916,0.339-2.778c0.006-0.096,0.032-0.198,0.057-0.287c0.096-0.453,0.198-0.875,0.287-1.296
						c0.377-1.539-0.945-2.018-2.714-2.037c-3.768-0.038-7.159-2.395-8.551-5.894c-0.441-1.13-0.952-2.012-1.494-2.273
						c-0.389-0.172-1.188,0.319-2.203,1.22c-0.594,0.517-1.271,1.181-1.986,1.922c-0.077,0.077-0.16,0.16-0.236,0.249
						c-0.492,0.505-0.996,1.073-1.514,1.641c-0.358,0.409-0.715,0.817-1.079,1.233c-0.505,0.594-1.015,1.194-1.507,1.788
						c-1.079,1.284-2.069,2.516-2.867,3.519c-1.124,1.405-1.858,2.356-1.858,2.356L72.522,448l1.984-1.984l1.44,0.305l3.095,0.515
						v1.144l14.16-0.01C93.201,447.97,94.201,447.09,93.361,445.9z"/>
					<g>
						<path style="fill:#D5D5D1;" d="M76.384,428.004l-0.237,1.911c-0.042,0.321,0.195,0.614,0.509,0.648l3.521,0.425
							c0.042-0.99,0.181-1.91,0.335-2.775c0.014-0.098,0.042-0.195,0.063-0.286l-3.542-0.432
							C76.712,427.453,76.412,427.683,76.384,428.004z"/>
						<path style="fill:#D5D5D1;" d="M63.914,419.568c-0.077,0.077-0.16,0.16-0.236,0.249l0.549,0.702
							c0.198,0.262,0.575,0.307,0.817,0.102l1.52-1.188c0.262-0.198,0.3-0.568,0.102-0.818l-0.766-0.971
							C65.306,418.163,64.629,418.827,63.914,419.568z"/>
						<path style="fill:#D5D5D1;" d="M69.512,431.006c-1.159,1.159-3.039,1.159-4.199,0c-1.159-1.16-1.159-3.039,0-4.199
							c1.16-1.159,3.039-1.159,4.199,0C70.672,427.966,70.672,429.846,69.512,431.006z"/>
					</g>
				</g>
				<path style="fill:#D5D5D1;" d="M93.361,445.9h-14.32v0.001h-4.42l-17.907-17.907c-1.345,1.176-2.189,2.04-2.189,2.04L72.522,448
					c0,0,6.295-0.021,6.519-0.021v0.001l14.16-0.01C93.201,447.97,94.201,447.09,93.361,445.9z"/>
			</g>
			<path style="fill:#D06C54;" d="M81.055,147.827c0,0,7.065-12.854,9.037-15.704c1.971-2.85,3.129-5.403,3.16-6.31
				c0.031-0.907-2.654,0.055-5.409,4.304c0,0,3.07-5.425,3.054-8.485c-0.016-3.06-4.494,4.435-5.588,7.133
				c0,0,2.845-7.08,2.472-10.241s-4.557,5.521-5.565,9.223c0,0,1.507-7.627,0.699-9.743c-0.808-2.117-3.185,6.098-3.698,9.552
				c-0.513,3.454-1.9,4.053-2.243,3.424c-0.343-0.63-1.351-3.227-1.698-4.621c-0.217-0.872-1.822-2.751-2.291-1.485
				c-0.282,0.759,0.136,3.131,0.43,4.542c0.782,3.763,1.378,10.285,0.584,13.053c-0.793,2.768-1.225,3.841-1.225,3.841
				L81.055,147.827z"/>
			<path style="fill:#1B141C;" d="M91.267,194.883c1.82,1.499,4.099,2.432,6.447,2.639c1.376,0.121,2.846-0.028,3.972-0.829
				c0.998-0.71,1.629-1.911,1.645-3.136c0.017-1.225-0.581-2.443-1.559-3.179c1.532,0.519,2.878,0.956,4.496,0.965
				c1.618,0.009,3.312-0.532,4.35-1.772c1.038-1.241,1.207-3.25,0.114-4.443c1.054,1.019,2.283,1.845,3.606,2.475
				c1.324,0.63,2.959,0.794,4.225,0.055c1.255-0.732,1.932-2.334,1.582-3.744c1.237,1.868,3.118,3.312,5.192,4.159
				c0.82,0.335,1.77,0.567,2.574,0.195c0.817-0.378,1.267-1.313,1.3-2.213s-0.281-1.775-0.638-2.601
				c-2.196-5.086-6.355-9.385-11.54-11.337c-5.185-1.952-11.349-1.386-15.856,1.836c-4.749,3.394-7.178,9.097-9.28,14.543
				C91.143,190.453,89.647,193.548,91.267,194.883z"/>
			<path style="fill:#536CC0;" d="M134.823,289.472c-15.467,2.617-29.071,2.66-44.554,0.141l-3.763,26.226
				c-0.482,4.709,0.217,9.46,2.046,13.826c4.37,10.434,13.315,30.267,22.362,41.172l23.775-13.039l-13.684-30.248h14.841l0,0
				c1.352-5.991,1.714-12.163,1.069-18.271L134.823,289.472z"/>
			<polygon style="fill:#3E508F;" points="108.492,369.594 134.196,355.429 135.845,358.565 110.676,372.472 			"/>
			<path style="fill:none;stroke:#3E508F;stroke-miterlimit:10;" d="M112.239,368.998c0-0.398-14.784-29.696-20.747-41.498
				c-1.597-3.162-2.196-6.728-1.722-10.238l2.368-17.54"/>
			<path style="fill:none;stroke:#3E508F;stroke-miterlimit:10;" d="M89.756,299.147c0,0,6.408,3.477,12.408-4.977"/>
			<path style="fill:none;stroke:#3E508F;stroke-miterlimit:10;" d="M135.016,300.073c-2.319-0.256-5.307-1.558-8.2-5.634"/>
			<line style="fill:none;stroke:#3E508F;stroke-miterlimit:10;" x1="117.263" y1="293.772" x2="117.263" y2="316.166"/>
			<path style="fill:none;stroke:#3E508F;stroke-miterlimit:10;" d="M112.578,294.534l0.505,9.887
				c0.153,2.996,2.627,5.347,5.627,5.347h0"/>
			<path style="fill:none;stroke:#3E508F;stroke-miterlimit:10;" d="M133.182,327.551c-0.229,0-12.644,0-12.644,0l9.364,19.668"/>
			<path style="fill:#F99746;" d="M137.108,294.288c-0.118-18.291,0.317-39.102,0.199-57.393l23.176-25.604l-19.158-15.842
				l-18.597,23.27l-0.91-0.399c-1.714,3.742-5.658,6.353-9.772,6.469s-8.199-2.27-10.119-5.911l-1.128,0.549l-16.111-19.51
				l-18.87,14.472l22.428,25.267c0.242,17.16-0.441,37.208-0.198,54.368C104.798,295.213,120.356,295.438,137.108,294.288z"/>
			<polygon style="fill:#D9843C;" points="86.975,200.523 66.677,217.78 63.204,213.106 84.304,197.378 			"/>
			<polyline style="fill:#D9843C;" points="137.721,195.697 160.484,214.269 162.961,210.168 141.06,192.411 137.721,195.697 			"/>
			<path style="fill:#D9843C;" d="M125.949,252.063h-25.596c-1.659,0-3.004-1.345-3.004-3.004v-4.907
				c0-1.659,1.345-3.004,3.004-3.004h25.596c1.659,0,3.004,1.345,3.004,3.004v4.907
				C128.953,250.718,127.608,252.063,125.949,252.063z"/>
			<path style="fill:none;stroke:#D9843C;stroke-miterlimit:10;" d="M88.4,239.251c3.404-1.362,6.369-3.797,8.366-6.872"/>
			<path style="fill:none;stroke:#D9843C;stroke-miterlimit:10;" d="M136.826,237.367c-2.877-1.015-5.398-3.013-7.041-5.584"/>
			<path style="fill:none;stroke:#D9843C;stroke-miterlimit:10;" d="M99.84,282.262c9.971-3.726,18.712-10.668,24.599-19.536"/>
			<path style="fill:none;stroke:#D9843C;stroke-miterlimit:10;" d="M108.786,288.052c4.34-3.123,7.969-7.227,10.536-11.918"/>
			<polygon style="fill:#C15538;" points="82.229,198.925 65.088,211.701 62.054,207.801 80.516,197.12 			"/>
			<polygon style="fill:#C15538;" points="143.923,194.733 160.484,208.159 163.992,203.8 145.448,193.092 			"/>
			<polygon style="fill:#C15538;" points="133.26,359.993 113.019,371.177 115.33,374.178 133.841,361.531 			"/>
			<g>
				<ellipse style="fill:#1B141C;" cx="123.731" cy="194.611" rx="1.176" ry="1.519"/>
				<ellipse style="fill:#1B141C;" cx="113.151" cy="194.611" rx="1.176" ry="1.519"/>

					<path style="fill:none;stroke:#1B141C;stroke-width:0.75;stroke-linecap:round;stroke-linejoin:round;stroke-miterlimit:10;" d="
					M118.744,193.538c-0.209,1.041-0.044,2.154,0.458,3.089c0.301,0.561,0.714,1.053,1.04,1.6c0.326,0.547,0.566,1.182,0.468,1.811
					c-0.161,1.028-1.137,1.695-2.025,2.237"/>
				<path style="fill:#1B141C;" d="M125.793,192.213c0.223-0.034,0.451-0.084,0.635-0.211c0.184-0.127,0.318-0.348,0.28-0.566
					c-0.057-0.331-0.442-0.49-0.774-0.571c-1.256-0.306-2.575-0.343-3.852-0.145c-0.337,0.052-0.899,0.232-0.808,0.683
					c0.073,0.365,0.591,0.45,0.895,0.523C123.336,192.207,124.597,192.396,125.793,192.213z"/>
				<path style="fill:#1B141C;" d="M111.058,192.213c-0.223-0.034-0.451-0.084-0.635-0.211c-0.185-0.127-0.318-0.348-0.28-0.566
					c0.057-0.331,0.442-0.49,0.774-0.571c1.256-0.306,2.575-0.343,3.852-0.145c0.337,0.052,0.898,0.232,0.808,0.683
					c-0.073,0.365-0.591,0.45-0.895,0.523C113.515,192.207,112.254,192.396,111.058,192.213z"/>
				<path style="fill:#FFFFFF;" d="M122.351,203.641c-2.564,0.345-5.175,0.342-7.739-0.01c-0.328,1.467,0.3,3.15,1.573,3.949
					c1.273,0.799,2.999,0.766,4.283-0.015C121.753,206.784,122.29,205.143,122.351,203.641z"/>
			</g>
		</g>
		<g style="clip-path:url(#SVGID_00000148632671484409225380000012540699058840375682_);">
			<path style="fill:#F78D7D;" d="M322.337,406.362c-3.214-0.24-6.418-0.569-9.62-0.895L315.476,441
				c0.211,2.752,2.401,5.018,5.238,5.238c3.137,0.244,5.877-2.102,6.121-5.238l2.661-34.262
				C327.106,406.657,324.719,406.54,322.337,406.362z"/>
			<g>
				<path style="fill:#1B141C;" d="M328.147,436.667c-0.008,0.681-0.041,1.403-0.082,2.141c-0.025,0.451-0.057,0.903-0.09,1.362
					c-0.049,0.648-0.107,1.305-0.164,1.936c-0.123,1.395-0.263,2.699-0.386,3.758c-0.164,1.493-0.287,2.486-0.287,2.486
					l-32.565-0.025c0,0-0.927-1.058-0.008-2.461c1.337-2.076,3.832-4.923,7.983-6.31c4.554-1.526,7.302-3.536,9.148-5.547
					c0.057-0.066,0.115-0.123,0.164-0.189c0.558-0.607,1.017-1.231,1.436-1.83c0.049-0.066,0.09-0.139,0.131-0.205
					c0.213-0.32,0.402-0.632,0.591-0.935c1.772-2.913,6.088,5.022,6.088,5.022s5.801-4.103,7.426-3.512
					C328.056,432.556,328.196,434.345,328.147,436.667z"/>
				<path style="fill:#D5D5D1;" d="M327.428,445.863c0.1,1.484,0.088,2.488,0.088,2.488l-32.95-0.027c0,0-0.922-1.059,0.001-2.461
					H327.428z"/>
				<path style="fill:#D5D5D1;" d="M315.848,434.296l-0.985,1.264c-0.164,0.213-0.476,0.246-0.681,0.082l-2.322-1.821
					c0.558-0.607,1.017-1.231,1.436-1.83c0.049-0.066,0.09-0.139,0.131-0.205l2.338,1.83
					C315.979,433.779,316.02,434.091,315.848,434.296z"/>
				<g>
					<path style="fill:#D5D5D1;" d="M328.065,438.809c-0.025,0.451-0.057,0.903-0.09,1.362c-1.231,0.763-2.609,1.321-4.061,1.625
						c-0.985,0.213-2.018,0.304-3.036,0.263c-1.009-0.033-1.961-0.148-2.855-0.189c-0.894-0.033-1.698,0.025-2.429,0.254
						c-0.738,0.222-1.436,0.624-2.043,1.116c-1.223,0.993-2.059,2.437-2.355,3.897l-3.241-0.853
						c0.697-2.191,2.117-4.069,3.979-5.284c0.927-0.607,1.969-1.067,3.077-1.28c1.116-0.23,2.232-0.172,3.216-0.025
						c1.001,0.148,1.92,0.361,2.798,0.476c0.87,0.123,1.748,0.139,2.634,0.041C325.185,440.056,326.694,439.572,328.065,438.809z"/>
				</g>
			</g>
			<path style="fill:#3E508F;" d="M311.731,361.795l-2.15,7.354c-0.364,1.244-0.511,2.54-0.437,3.834l0.232,4.033
				C314.346,372.943,312.941,367.285,311.731,361.795z"/>
			<path style="fill:#495FA8;" d="M340.849,316.65l-17.136,4.154l-11.982,40.991c1.209,5.49,2.614,11.148-2.355,15.221l2.483,43.184
				h17.731l3.738-44.732l20.247-49.707L340.849,316.65z"/>
			<polygon style="fill:#3E508F;" points="310.597,417.777 331.304,417.336 331.014,422.689 311.157,422.137 			"/>
			<polyline style="fill:none;stroke:#3E508F;stroke-miterlimit:10;" points="326.949,420.013 329.591,374.991 341.455,349.708
				"/>
			<path style="fill:#1B141C;" d="M326.606,200.086c2.101,1.095,3.098,3.634,3.109,6.003c0.01,2.369-0.775,4.657-1.394,6.944
				c-0.618,2.287-1.073,4.73-0.406,7.003c0.971,3.314,4.099,5.574,5.437,8.759c1.008,2.4,0.904,5.165,0.125,7.649
				c-0.779,2.484-2.189,4.724-3.748,6.809c4.613-0.525,9.561-2.505,12.463-6.128c2.667-3.328,3.37-7.829,3.304-12.093
				c-0.092-5.923-1.54-11.921-4.821-16.853C337.394,203.245,332.47,200.928,326.606,200.086z"/>
			<path style="fill:#1B141C;" d="M335.559,206.192c-5.402-1.26-10.105-5.373-11.855-10.636c-1.75-5.264-0.372-11.496,3.596-15.372
				c3.968-3.875,10.385-5.08,15.398-2.706c4.053,1.92,6.954,5.815,11.102,7.524c2.817,1.16,5.95,1.202,8.941,1.784
				c2.991,0.582,6.133,1.95,7.444,4.7c2.242,4.7-2.022,10.003-1.824,15.207c0.143,3.772,2.597,6.997,4.78,10.077
				c2.183,3.08,4.284,6.697,3.592,10.408c-0.748,4.011-4.549,6.853-5.586,10.8c-0.814,3.103,0.221,6.412,1.774,9.219
				c1.553,2.807,3.617,5.31,5.112,8.147c3.603,6.835,3.514,15.482-0.229,22.242c-3.743,6.759-11.024,11.424-18.73,11.998
				C355.469,260.358,342.072,234.907,335.559,206.192z"/>
			<rect x="339.552" y="221.35" style="fill:#F78D7D;" width="15.85" height="21.37"/>
			<path style="fill:#D2675D;" d="M339.552,221.35v6.61c3.61,0.15,11.89-0.23,15.26-6.58l-2.32-0.03H339.552z"/>
			<path style="fill:#F78D7D;" d="M331.555,206.207c0-10.472,7.004-18.961,15.644-18.961s15.644,8.489,15.644,18.961
				c0,3.274-0.693,6.558-2.114,9.513c-1.278,2.657-3.154,5.056-5.558,6.783c-1.494,1.073-3.245,1.896-5.047,2.279
				c-1.198,0.255-2.489,0.2-3.708,0.216c-1.338,0.019-2.676,0.001-4.012-0.052c-1.555-0.062-3.198-0.139-4.683-0.646
				c-1.315-0.45-2.523-1.247-3.468-2.264c-1.626-1.749-2.522-4.094-2.522-6.479v-6.662
				C331.626,208.016,331.555,207.123,331.555,206.207z"/>
			<g>
				<path style="fill:#D06C54;" d="M359.36,206.075c0.561-0.999,1.917-1.573,3.197-1.479c1.28,0.094,2.445,0.79,3.147,1.72
					s0.973,2.069,0.931,3.178c-0.043,1.145-0.422,2.303-1.231,3.21c-0.81,0.908-2.08,1.536-3.406,1.532
					c-1.326-0.004-2.658-0.708-3.12-1.782L359.36,206.075z"/>
				<g>

						<path style="fill:none;stroke:#C15538;stroke-width:0.6854;stroke-linecap:round;stroke-linejoin:round;stroke-miterlimit:10;" d="
						M362.39,212.237c-1.014-1.885-0.867-4.149,0.386-5.939"/>

						<path style="fill:none;stroke:#C15538;stroke-width:0.6854;stroke-linecap:round;stroke-linejoin:round;stroke-miterlimit:10;" d="
						M362.016,208.883c1.066,0.469,1.893,1.278,2.26,2.21"/>
				</g>
			</g>
			<g>
				<path style="fill:#F78D7D;" d="M343.687,415.425c0.382,2.909,0.77,5.817,1.161,8.726c0.844,6.055,1.681,12.111,2.636,18.16
					c0.413,2.62,2.617,4.682,5.37,4.812c3.15,0.149,5.823-2.284,5.972-5.433c0.289-6.117,0.459-12.228,0.637-18.34
					c0.072-2.954,0.14-5.908,0.202-8.862C354.341,414.866,349.016,415.208,343.687,415.425z"/>
			</g>
			<path style="fill:#F78D7D;" d="M330.903,304.906h32.322l6.98-52.474c0.858-6.453-1.502-12.532-5.915-14.509l-16.45-7.372
				l-17.834,7.503c-4.499,1.893-6.931,8.021-6.063,14.547L330.903,304.906z"/>
			<path style="fill:#D06C54;" d="M330.451,326.884h33.223c4.54,0,6.799-6.494,5.036-13.125l-5.49-20.645h-32.316l-5.49,20.645
				C323.652,320.39,325.91,326.884,330.451,326.884z"/>
			<g>
				<path style="fill:#1B141C;" d="M360.147,436.667c-0.008,0.681-0.041,1.403-0.082,2.141c-0.025,0.451-0.057,0.903-0.09,1.362
					c-0.049,0.648-0.107,1.305-0.164,1.936c-0.123,1.395-0.263,2.699-0.386,3.758c-0.164,1.493-0.287,2.486-0.287,2.486
					l-32.565-0.025c0,0-0.927-1.058-0.008-2.461c1.337-2.076,3.832-4.923,7.983-6.31c4.554-1.526,7.302-3.536,9.148-5.547
					c0.057-0.066,0.115-0.123,0.164-0.189c0.558-0.607,1.017-1.231,1.436-1.83c0.049-0.066,0.09-0.139,0.131-0.205
					c0.213-0.32,0.402-0.632,0.591-0.935c1.772-2.913,6.088,5.022,6.088,5.022s5.801-4.103,7.426-3.512
					C360.056,432.556,360.196,434.345,360.147,436.667z"/>
				<path style="fill:#D5D5D1;" d="M359.428,445.863c0.1,1.484,0.088,2.488,0.088,2.488l-32.95-0.027c0,0-0.922-1.059,0.001-2.461
					H359.428z"/>
				<path style="fill:#D5D5D1;" d="M347.848,434.296l-0.985,1.264c-0.164,0.213-0.476,0.246-0.681,0.082l-2.322-1.821
					c0.558-0.607,1.017-1.231,1.436-1.83c0.049-0.066,0.09-0.139,0.131-0.205l2.338,1.83
					C347.979,433.779,348.02,434.091,347.848,434.296z"/>
				<g>
					<path style="fill:#D5D5D1;" d="M360.065,438.809c-0.025,0.451-0.057,0.903-0.09,1.362c-1.231,0.763-2.609,1.321-4.061,1.625
						c-0.985,0.213-2.018,0.304-3.036,0.263c-1.009-0.033-1.961-0.148-2.855-0.189c-0.894-0.033-1.698,0.025-2.429,0.254
						c-0.738,0.222-1.436,0.624-2.043,1.116c-1.223,0.993-2.059,2.437-2.355,3.897l-3.241-0.853
						c0.697-2.191,2.117-4.069,3.979-5.284c0.927-0.607,1.969-1.067,3.077-1.28c1.116-0.23,2.232-0.172,3.216-0.025
						c1.001,0.148,1.92,0.361,2.798,0.476c0.87,0.123,1.748,0.139,2.634,0.041C357.185,440.056,358.694,439.572,360.065,438.809z"/>
				</g>
			</g>
			<path style="fill:#F78D7D;" d="M449.674,305.328c1.955-0.705-5.54-3.025-8.699-3.555c-3.159-0.53-3.686-1.812-3.103-2.116
				c0.583-0.304,2.983-1.184,4.268-1.479c0.803-0.184,2.554-1.624,1.401-2.077c-0.692-0.271-2.875,0.072-4.174,0.317
				c-2.849,0.537-7.403,0.925-10.337,0.616l-14.152-7.349c-0.587,0.729-1.227,1.402-1.92,2.002
				c-0.226,0.354-0.452,0.707-0.681,1.052c-1.354,2.04-2.74,4.065-3.992,6.171c-0.157,0.264-0.375,0.659-0.612,1.098l19.789,6.072
				c3.482,2.04,7.707,4.558,9.138,5.588c2.581,1.857,4.903,2.963,5.735,3.007c0.831,0.044-0.005-2.435-3.856-5.035
				c0,0,4.925,2.909,7.732,2.946c2.807,0.037-3.992-4.198-6.449-5.248c0,0,6.447,2.731,9.352,2.442
				c2.906-0.288-4.987-4.274-8.366-5.262C440.748,304.522,447.719,306.034,449.674,305.328z"/>
			<path style="fill:#1B141C;" d="M329.716,202.35c3.558,2.312,7.852,3.472,12.09,3.266s8.399-1.778,11.715-4.426
				c-0.529,1.888-0.029,4.235,0.798,6.012c0.827,1.777,1.972,3.39,2.837,5.15c1.428,2.905,2.063,6.196,1.818,9.424
				c2.205-1.335,4.303-2.815,5.9-4.838c1.67-2.116,2.495-4.799,2.788-7.479c0.838-7.643-2.705-15.629-8.97-20.087
				c-6.265-4.457-15.009-5.176-21.891-1.747c-2.653,1.322-5.059,3.25-6.602,5.781C328.656,195.937,328.852,199.515,329.716,202.35z"
				/>
			<path style="fill:#3E508F;" d="M337.754,361.338l-0.693,6.784c-0.085,0.835-0.073,1.676,0.036,2.508l0.945,7.195
				C342.2,372.516,340.253,365.997,337.754,361.338z"/>
			<path style="fill:#536CC0;" d="M368.74,310.001l-3.449-12.733h-36.6l-4.978,23.536l1.031,2.062
				c1.899,3.797,5.78,6.196,10.026,6.196h6.283l-3.299,32.276c2.499,4.659,4.446,11.178,0.287,16.486l5.818,44.313l16.841-0.751
				l0.591-50.432l8.116-39.722C370.845,324.2,370.616,316.929,368.74,310.001z"/>
			<polygon style="fill:#3E508F;" points="341.676,419.132 362.31,417.336 362.371,422.696 342.52,423.445 			"/>
			<path style="fill:none;stroke:#3E508F;stroke-miterlimit:10;" d="M358.807,420.013l0.091-49.681l8.86-44.439
				c0.547-2.744,0.433-5.578-0.332-8.269l-3.124-10.983"/>
			<path style="fill:none;stroke:#3E508F;stroke-miterlimit:10;" d="M355.141,299.185c0,0,1.938,9.926,11.806,6.872"/>
			<path style="fill:none;stroke:#3E508F;stroke-miterlimit:10;" d="M330.718,299.185c0,0-0.687,3.518-3.325,5.721"/>
			<path style="fill:none;stroke:#3E508F;stroke-miterlimit:10;" d="M324.309,321.995c0,0,1.643,8.969,16.744,7.068l-0.699,6.841"/>
			<line style="fill:none;stroke:#3E508F;stroke-miterlimit:10;" x1="341.455" y1="301.092" x2="339.98" y2="315.9"/>
			<path style="fill:none;stroke:#3E508F;stroke-miterlimit:10;" d="M337.37,301.376l-0.388,4.217
				c-0.264,2.873,1.654,5.493,4.473,6.109l0,0"/>
			<path style="fill:#F06795;" d="M333.42,236.17c-4.82,2.217-9.298,5.114-13.297,8.602l-19.488,16.999l-17.229-19.051
				l-10.363,6.976l19.215,30.714c4.429-0.863,9.41-0.165,12.609,2.763l18.904-13.673l7.785-22.63l5.336-12.297L333.42,236.17z"/>
			<path style="fill:#F06795;" d="M366.882,301.581c-13.15,1.647-26.531,1.364-39.71-0.034c0.406-7.305,0.34-18.921-2.347-25.727
				c-1.65-4.18-4.352-8.236-4.012-12.717c0.298-3.928,2.913-7.327,3.627-11.201c0.632-3.431-0.235-7.162,1.23-10.328
				c0.934-2.018,3.07-2.558,5.048-3.575s4.375-2.013,6.172-3.426c1.859,4.758,5.363,8.855,9.776,11.428
				c4.686-2.608,9.133-7.046,11.559-11.829c5.619,2.627,8.675,4.148,10.447,8.132c1.814,4.079,0.803,8.601,0.449,13.051
				C368.011,269.313,367.992,287.625,366.882,301.581z"/>
			<path style="fill:#B54E71;" d="M378.893,289.889l0.264,0.298c2.322,2.615,5.34,4.515,8.702,5.479l1.253,0.359
				C386.858,292.484,383.35,289.937,378.893,289.889z"/>
			<path style="fill:#F06795;" d="M420.091,290.89l-24.519-12.731l-21.726-32.199c-2.702-4.005-6.402-7.236-10.735-9.375
				l-4.886-2.412l1.159,21.117l6.13,19.531l13.379,15.068c4.457,0.048,7.965,2.595,10.219,6.136l26.5,7.596L420.091,290.89z"/>
			<polygon style="fill:#B54E71;" points="421.963,290.271 415.757,304.308 412.678,303.589 419.037,289.402 			"/>
			<path style="fill:none;stroke:#B54E71;stroke-miterlimit:10;" d="M322.377,270.176c-1.926-3.103-2.515-7.006-1.591-10.54
				c0.573-2.188,1.682-4.191,2.561-6.275c0.88-2.084,1.542-4.364,1.149-6.591"/>
			<path style="fill:none;stroke:#B54E71;stroke-miterlimit:10;" d="M394.301,280.263c-1.785,2.344-3.737,4.561-5.837,6.628"/>
			<path style="fill:#B54E71;" d="M360.25,235.12c-3,5.62-8.26,10.78-13.78,13.85c-5.12-2.98-9.24-7.66-11.56-13.1
				c0.7-0.39,1.38-0.82,1.98-1.3c1.86,4.76,5.36,8.86,9.78,11.43c4.68-2.61,9.13-7.04,11.56-11.83
				C358.94,234.5,359.62,234.82,360.25,235.12z"/>
			<path style="fill:none;stroke:#B54E71;stroke-miterlimit:10;" d="M367.745,277.374c-1.52-4.1-2.277-8.482-2.22-12.855"/>
			<path style="fill:none;stroke:#B54E71;stroke-miterlimit:10;" d="M332.518,294.694c5.723-4.229,10.591-9.608,14.231-15.723"/>
			<path style="fill:none;stroke:#B54E71;stroke-miterlimit:10;" d="M339.602,294.944c2.516-2.269,5.032-4.537,7.548-6.806"/>
			<polygon style="fill:#D2675D;" points="420.85,292.789 416.464,302.709 419.436,303.621 421.963,293.367 			"/>
			<polygon style="fill:#D2675D;" points="314.018,422.216 328.263,422.612 327.931,426.895 314.164,424.099 			"/>
			<polygon style="fill:#D2675D;" points="344.742,423.361 359.477,422.806 359.339,427.638 344.998,425.222 			"/>
			<g>
				<path style="fill:#1B141C;" d="M332.246,207.23c-0.223-0.034-0.451-0.084-0.635-0.212c-0.185-0.127-0.318-0.348-0.28-0.566
					c0.057-0.331,0.442-0.49,0.774-0.571c1.256-0.306,2.575-0.343,3.852-0.145c0.337,0.052,0.898,0.232,0.808,0.683
					c-0.073,0.366-0.591,0.45-0.895,0.523C334.703,207.224,333.442,207.413,332.246,207.23z"/>
				<path style="fill:#1B141C;" d="M346.98,207.23c0.223-0.034,0.451-0.084,0.635-0.212c0.185-0.127,0.318-0.348,0.28-0.566
					c-0.057-0.331-0.442-0.49-0.774-0.571c-1.256-0.306-2.575-0.343-3.852-0.145c-0.337,0.052-0.898,0.232-0.808,0.683
					c0.073,0.366,0.591,0.45,0.895,0.523C344.523,207.224,345.785,207.413,346.98,207.23z"/>

					<path style="fill:none;stroke:#1B141C;stroke-width:0.75;stroke-linecap:round;stroke-linejoin:round;stroke-miterlimit:10;" d="
					M332.727,210.671c0.138-0.822,0.859-1.51,1.686-1.609c0.827-0.099,1.691,0.399,2.019,1.165"/>

					<path style="fill:none;stroke:#1B141C;stroke-width:0.75;stroke-linecap:round;stroke-linejoin:round;stroke-miterlimit:10;" d="
					M346.869,210.671c-0.138-0.822-0.859-1.51-1.686-1.609c-0.827-0.099-1.691,0.399-2.019,1.165"/>

					<path style="fill:none;stroke:#1B141C;stroke-width:0.75;stroke-linecap:round;stroke-linejoin:round;stroke-miterlimit:10;" d="
					M339.437,209.917c0.066,0.772-0.491,1.444-1.023,2.008c-0.532,0.564-1.109,1.205-1.099,1.98
					c0.012,0.874,0.762,1.539,1.477,2.042"/>

					<path style="fill:none;stroke:#1B141C;stroke-width:0.75;stroke-linecap:round;stroke-linejoin:round;stroke-miterlimit:10;" d="
					M336.498,218.946c1.958,0.536,4.149,0.145,5.8-1.036"/>
			</g>
		</g>
	</g>
</g>
</svg>
