<?xml version="1.0" encoding="iso-8859-1"?>
<!-- Uploaded to: SVG Repo, www.svgrepo.com, Generator: SVG Repo Mixer Tools -->
<svg height="800px" width="800px" version="1.1" id="Layer_1" xmlns="http://www.w3.org/2000/svg" xmlns:xlink="http://www.w3.org/1999/xlink" 
	 viewBox="0 0 511.999 511.999" xml:space="preserve">
<path style="fill:#B4E1FA;" d="M349.417,42.221H162.582c-9.694,0-17.449,8.049-17.091,17.735l16.445,444.027h76.96V162.852
	c0-8.519,5.821-16.416,14.23-17.783c10.715-1.743,19.974,6.482,19.974,16.868v342.046h76.96l16.445-444.027
	C366.866,50.27,359.11,42.221,349.417,42.221z"/>
<g>
	<polygon style="fill:#A0D2F0;" points="238.897,503.983 238.897,478.33 160.987,478.33 161.936,503.983 	"/>
	<polygon style="fill:#A0D2F0;" points="350.061,503.983 351.012,478.33 273.101,478.33 273.101,503.983 	"/>
	<path style="fill:#A0D2F0;" d="M358.613,44.957V8.017H153.385v36.908c-4.923,3.152-8.128,8.738-7.894,15.032l1.56,42.123h6.334
		c23.614,0,42.756-19.143,42.756-42.756V42.221h119.666v17.102c0,23.613,19.142,42.756,42.756,42.756h6.334l1.56-42.123
		C366.688,53.684,363.508,48.114,358.613,44.957z"/>
</g>
<path d="M367.505,41.894c-0.285-0.296-0.578-0.584-0.874-0.864V8.017c0-4.427-3.589-8.017-8.017-8.017H153.386
	c-4.427,0-8.017,3.589-8.017,8.017v33.013c-0.297,0.28-0.589,0.568-0.874,0.864c-4.778,4.959-7.268,11.479-7.014,18.359
	l16.446,444.026c0.159,4.31,3.698,7.721,8.011,7.721h76.96c4.427,0,8.017-3.589,8.017-8.017V161.936c0-5.01,4.076-9.086,9.086-9.086
	c5.01,0,9.086,4.076,9.086,9.086v342.046c0,4.427,3.589,8.017,8.017,8.017h76.96c4.312,0,7.852-3.411,8.011-7.721l16.443-444.025
	C374.773,53.372,372.283,46.852,367.505,41.894z M323.874,50.238h25.542c2.491,0,4.814,0.988,6.543,2.781
	c1.728,1.794,2.628,4.152,2.536,6.641l-1.273,34.367c-18.511-0.733-33.348-16.015-33.348-34.704V50.238z M350.596,34.233
	c-0.391-0.018-0.785-0.029-1.18-0.029h-42.645V16.033h43.825V34.233z M221.26,34.205V16.033h69.478v18.171H221.26z M161.402,16.033
	h43.825v18.171h-42.645c-0.395,0-0.788,0.012-1.18,0.029V16.033z M153.503,59.66C153.503,59.66,153.503,59.659,153.503,59.66
	c-0.092-2.489,0.808-4.847,2.536-6.641c1.728-1.794,4.052-2.781,6.543-2.781h25.542v9.086c0,18.689-14.836,33.971-33.348,34.704
	L153.503,59.66z M230.88,161.937v334.029h-61.218l-14.293-385.921c27.078-1.048,48.789-23.392,48.789-50.722v-9.086h43.825v87.899
	C238.052,141.492,230.88,150.889,230.88,161.937z M342.337,495.967h-61.219V161.937c0-11.048-7.172-20.446-17.102-23.8V50.238
	h43.825v9.086c0,27.331,21.71,49.675,48.789,50.722L342.337,495.967z"/>
</svg>