<?xml version="1.0" encoding="iso-8859-1"?>
<!-- Uploaded to: SVG Repo, www.svgrepo.com, Generator: SVG Repo Mixer Tools -->
<svg height="800px" width="800px" version="1.1" id="Layer_1" xmlns="http://www.w3.org/2000/svg" xmlns:xlink="http://www.w3.org/1999/xlink" 
	 viewBox="0 0 512 512" xml:space="preserve">
<path style="fill:#E4EAF8;" d="M444.125,204.693c0-31.813-15.793-59.938-39.969-76.961l-2.787,0.001
	c-26.602,25.318-81.619,42.756-145.37,42.756s-118.768-17.438-145.37-42.756l-2.787-0.001
	c-24.176,17.023-39.969,45.148-39.969,76.961c0,29.21,13.315,55.308,34.205,72.56v218.179c0,4.722,3.829,8.551,8.551,8.551H401.37
	c4.722,0,8.551-3.829,8.551-8.551V277.253C430.81,260.001,444.125,233.903,444.125,204.693z"/>
<g>
	<path style="fill:#D5DCED;" d="M401.37,503.983H110.63c-4.722,0-8.551-3.829-8.551-8.551v-25.653h307.841v25.653
		C409.921,500.155,406.092,503.983,401.37,503.983z"/>
	<path style="fill:#D5DCED;" d="M169.921,298.375c-26.016,2.311-49.543-6.048-67.842-21.18v8.551v12.47v8.551
		c14.622,9.392,30.973,15.512,49.171,17.18c10.016,0.918,18.67-7.033,18.67-17.092L169.921,298.375z"/>
	<path style="fill:#D5DCED;" d="M342.063,298.375c26.016,2.311,49.56-6.048,67.858-21.18v8.551v12.47v8.551
		c-14.622,9.392-30.99,15.512-49.188,17.18c-10.016,0.918-18.67-7.033-18.67-17.092L342.063,298.375z"/>
</g>
<path d="M452.142,204.693c0-32.92-15.972-63.911-42.756-83.07V8.017c0-4.427-3.588-8.017-8.017-8.017s-8.017,3.589-8.017,8.017
	V124.19c-26.795,23.337-80.11,38.281-137.353,38.281s-110.558-14.944-137.353-38.281V8.017c0-4.427-3.588-8.017-8.017-8.017
	c-4.428,0-8.017,3.589-8.017,8.017v113.606c-26.783,19.159-42.756,50.151-42.756,83.07c0,30.25,13.232,57.464,34.205,76.173v214.566
	c0,9.136,7.432,16.568,16.568,16.568H401.37c9.136,0,16.568-7.432,16.568-16.568V280.866
	C438.91,262.157,452.142,234.943,452.142,204.693z M401.904,495.432c0,0.295-0.24,0.534-0.534,0.534H110.63
	c-0.294,0-0.534-0.239-0.534-0.534v-17.637h291.808V495.432z M350.063,290.739c-4.428,0-8.017,3.589-8.017,8.017
	c0,4.427,3.588,8.017,8.017,8.017c18.913,0,36.637-5.177,51.841-14.178v169.167H110.096V292.595
	c15.204,9.001,32.928,14.178,51.841,14.178c4.428,0,8.017-3.589,8.017-8.017c0-4.427-3.588-8.017-8.017-8.017
	c-47.446,0-86.046-38.6-86.046-86.046c0-26.482,12.267-51.485,33.013-67.755c30.178,25.734,85.819,41.567,147.096,41.567
	s116.918-15.834,147.096-41.567c20.746,16.27,33.013,41.273,33.013,67.755C436.109,252.139,397.509,290.739,350.063,290.739z"/>
</svg>