<?xml version="1.0" encoding="iso-8859-1"?>
<!-- Uploaded to: SVG Repo, www.svgrepo.com, Generator: SVG Repo Mixer Tools -->
<svg version="1.1" id="Layer_1" xmlns="http://www.w3.org/2000/svg" xmlns:xlink="http://www.w3.org/1999/xlink" 
	 viewBox="0 0 512 512" xml:space="preserve">
<path style="fill:#FF5A64;" d="M483.859,66.852c-3.358-20.149-18.349-36.386-38.165-41.34L375.717,8.017H136.283L66.305,25.511
	C46.489,30.465,31.499,46.702,28.14,66.85L8.017,187.591l94.062,34.205v282.187h307.841V221.796l94.062-34.205L483.859,66.852z"/>
<g>
	<path style="fill:#D74B55;" d="M136.284,8.017c0,66.117,53.6,119.716,119.716,119.716S375.716,74.135,375.716,8.017
		C375.716,8.017,136.284,8.017,136.284,8.017z"/>
	<path style="fill:#D74B55;" d="M84.548,84.548L40.799,40.799c-6.498,7.15-11.002,16.117-12.659,26.053L8.017,187.591l94.062,34.205
		v-94.922C102.08,110.999,95.773,95.773,84.548,84.548z"/>
</g>
<path style="fill:#C8414B;" d="M341.512,8.017c0,47.227-38.284,85.511-85.511,85.511s-85.511-38.284-85.511-85.511"/>
<polygon style="fill:#FF5A64;" points="13.342,155.645 8.017,187.591 102.08,221.796 102.08,187.591 "/>
<path style="fill:#D74B55;" d="M427.453,84.548l43.749-43.749c6.498,7.15,11.002,16.117,12.659,26.053l20.123,120.74l-94.062,34.205
	v-94.922C409.921,110.999,416.227,95.773,427.453,84.548z"/>
<polygon style="fill:#FF5A64;" points="498.659,155.645 503.983,187.591 409.921,221.796 409.921,187.591 "/>
<rect x="102.079" y="469.777" style="fill:#D74B55;" width="307.841" height="34.205"/>
<path style="fill:#FF5A64;" d="M273.102,50.773h-34.205c-4.703,0-8.551-3.848-8.551-8.551l0,0c0-4.703,3.848-8.551,8.551-8.551
	h34.205c4.703,0,8.551,3.848,8.551,8.551l0,0C281.654,46.925,277.806,50.773,273.102,50.773z"/>
<g>
	<polygon style="fill:#D74B55;" points="76.426,212.467 102.08,221.796 102.08,187.591 76.426,178.356 	"/>
	<polygon style="fill:#D74B55;" points="435.574,212.467 409.921,221.796 409.921,187.591 435.574,178.356 	"/>
</g>
<g>
	<path style="fill:#C8414B;" d="M102.08,126.873c0-1.217-0.041-2.43-0.119-3.636c-0.145-2.271-1.998-4.055-4.273-4.055h-4.16
		c-9.446,0-17.102,7.656-17.102,17.102v42.072l25.653,9.235v-60.717H102.08z"/>
	<path style="fill:#C8414B;" d="M435.574,136.284c0-9.446-7.656-17.102-17.102-17.102h-4.16c-2.276,0-4.127,1.784-4.273,4.055
		c-0.078,1.207-0.119,2.42-0.119,3.636v60.717l25.653-9.235v-42.072H435.574z"/>
</g>
<path d="M511.891,186.273L491.767,65.534c-3.884-23.307-21.206-42.069-44.128-47.8l-55.682-13.92
	c-10.122-2.531-20.545-3.814-30.98-3.814H151.02c-10.435,0-20.858,1.283-30.98,3.814l-55.68,13.919
	c-22.922,5.73-40.244,24.494-44.128,47.8L0.11,186.273c-0.635,3.811,1.537,7.531,5.168,8.852l88.785,32.286v276.572
	c0,4.427,3.589,8.017,8.017,8.017h307.841c4.427,0,8.017-3.589,8.017-8.017V227.411l88.785-32.286
	C510.352,193.805,512.526,190.084,511.891,186.273z M333.08,16.034c-4.024,38.978-37.056,69.478-77.081,69.478
	s-73.056-30.5-77.081-69.478C178.918,16.034,333.08,16.034,333.08,16.034z M162.82,16.034c4.08,47.833,44.31,85.511,93.181,85.511
	s89.101-37.678,93.181-85.511h11.797c2.142,0,4.283,0.067,6.42,0.19c-1.959,27.089-13.581,52.275-33.114,71.469
	c-21.014,20.65-48.816,32.023-78.283,32.023c-29.356,0-57.083-11.299-78.073-31.816c-19.648-19.206-31.362-44.484-33.33-71.676
	c2.138-0.124,4.28-0.191,6.423-0.191H162.82z M68.249,33.289l55.68-13.92c1.576-0.394,3.162-0.741,4.753-1.066
	c2.445,30.753,15.789,59.315,38.038,81.063c24.003,23.462,55.71,36.384,89.28,36.384c33.697,0,65.49-13.005,89.522-36.62
	c22.119-21.734,35.362-50.192,37.794-80.826c1.591,0.325,3.178,0.671,4.753,1.066l55.682,13.92
	c16.727,4.181,29.367,17.873,32.201,34.88l13.7,82.197l-71.715,25.817v-48.452c0-4.427-3.589-8.017-8.017-8.017
	s-8.017,3.589-8.017,8.017V461.76H110.096V127.731c0-4.427-3.589-8.017-8.017-8.017s-8.017,3.589-8.017,8.017v48.452l-71.715-25.817
	l13.7-82.198C38.883,51.162,51.522,37.471,68.249,33.289z M17.021,182.334l2.649-15.891l74.394,26.782v17.125L17.021,182.334z
	 M110.097,495.966v-18.171h291.807v18.171H110.097z M417.937,210.35v-17.125l74.394-26.782l2.649,15.891L417.937,210.35z"/>
</svg>