<?xml version="1.0" encoding="iso-8859-1"?>
<!-- Uploaded to: SVG Repo, www.svgrepo.com, Generator: SVG Repo Mixer Tools -->
<svg version="1.1" id="Layer_1" xmlns="http://www.w3.org/2000/svg" xmlns:xlink="http://www.w3.org/1999/xlink" 
	 viewBox="0 0 512 512" xml:space="preserve">
<path style="fill:#64DCA0;" d="M453.351,45.778H58.649c-4.739,0-8.58,3.842-8.58,8.58v68.644h411.864V54.358
	C461.932,49.62,458.09,45.778,453.351,45.778z"/>
<rect x="50.068" y="71.518" style="fill:#FFDC64;" width="411.864" height="17.161"/>
<path style="fill:#7DF5A5;" d="M503.916,456.808l-31.893-326.891c-0.858-8.791-8.248-15.494-17.079-15.494H57.056
	c-8.833,0-16.222,6.704-17.079,15.494L8.084,456.808c-0.492,5.044,3.472,9.414,8.54,9.414h190.575
	c8.364,0,15.508-6.029,16.916-14.273l23.427-137.216c1.625-9.516,15.292-9.516,16.916,0l23.427,137.216
	c1.407,8.244,8.553,14.273,16.916,14.273h190.575C500.444,466.222,504.408,461.852,503.916,456.808z"/>
<g>
	<path style="fill:#FFF082;" d="M8.084,456.808c-0.492,5.044,3.472,9.414,8.54,9.414h24.864l25.064-257.415l-36.439,22.214
		L8.084,456.808z"/>
	<circle style="fill:#FFF082;" cx="213.096" cy="251.709" r="17.161"/>
	<circle style="fill:#FFF082;" cx="298.901" cy="251.709" r="17.161"/>
</g>
<path style="fill:#64DCA0;" d="M31.538,216.41l-2.878,29.495c42.16-17.756,97.594-55.457,99.82-131.483h-26.025
	C100.113,168.956,64.351,199.706,31.538,216.41z"/>
<path style="fill:#FFF082;" d="M503.916,456.808c0.492,5.044-3.472,9.414-8.54,9.414h-24.864l-25.064-257.415l36.439,22.214
	L503.916,456.808z"/>
<path style="fill:#64DCA0;" d="M480.462,216.41l2.878,29.495c-42.16-17.756-97.594-55.457-99.82-131.483h26.026
	C411.887,168.956,447.648,199.706,480.462,216.41z"/>
<path d="M511.922,456.027L480.03,129.135c-0.72-7.374-4.52-13.709-10.054-17.812V54.358c0-9.167-7.458-16.625-16.625-16.625H58.649
	c-9.167,0-16.625,7.458-16.625,16.625v56.964c-5.535,4.103-9.335,10.438-10.054,17.812L0.078,456.027
	c-0.455,4.658,1.088,9.317,4.232,12.784s7.632,5.455,12.313,5.455h190.575c12.323,0,22.772-8.816,24.846-20.963l23.427-137.216
	c0.043-0.251,0.101-0.348,0.098-0.348c0.163-0.13,0.701-0.129,0.851-0.012c0,0.001,0.063,0.094,0.108,0.359l23.427,137.215
	c2.073,12.147,12.522,20.964,24.846,20.964h190.575c4.681,0,9.168-1.989,12.313-5.455
	C510.834,465.346,512.376,460.685,511.922,456.027z M473.869,231.683c-7.98-4.243-20.759-11.999-33.789-23.871
	c-25.822-23.531-41.365-52.21-46.304-85.345h61.167c4.715,0,8.615,3.539,9.073,8.232L473.869,231.683z M58.649,53.822h394.703
	c0.295,0,0.536,0.241,0.536,0.536v52.019H306.947V80.1c0-4.444-3.601-8.044-8.044-8.044s-8.044,3.601-8.044,8.044v26.278h-69.716
	V80.1c0-4.444-3.602-8.044-8.044-8.044s-8.044,3.601-8.044,8.044v26.278H58.112V54.358C58.112,54.063,58.353,53.822,58.649,53.822z
	 M47.982,130.697c0.458-4.692,4.359-8.231,9.074-8.231h61.166c-4.938,33.136-20.481,61.814-46.304,85.345
	c-13.029,11.873-25.809,19.629-33.789,23.872L47.982,130.697z M16.227,458.002c-0.16-0.176-0.143-0.346-0.136-0.412l20.21-207.158
	c1.812-0.757,9.149-3.958,19.099-10.105l-21.211,217.85H16.624C16.559,458.178,16.387,458.178,16.227,458.002z M295.815,450.595
	l-23.428-137.216c-1.39-8.141-8.128-13.826-16.387-13.826s-14.998,5.686-16.388,13.826l-23.427,137.216
	c-0.75,4.394-4.529,7.583-8.987,7.583H50.353L72.747,228.18c3.12-2.459,6.313-5.133,9.532-8.044
	c35.909-32.489,48.377-69.839,52.185-97.67h70.588v105.362c-9.964,3.366-17.161,12.796-17.161,23.882
	c0,13.898,11.307,25.205,25.205,25.205s25.205-11.307,25.205-25.205c0-11.085-7.197-20.515-17.161-23.882V122.466h69.716v105.362
	c-9.964,3.366-17.161,12.796-17.161,23.882c0,13.898,11.307,25.205,25.205,25.205s25.205-11.307,25.205-25.205
	c0-11.085-7.197-20.515-17.161-23.882V122.466h70.594c6.413,47.277,31.613,79.06,52.18,97.67c3.219,2.912,6.412,5.585,9.532,8.044
	l22.395,229.998H304.801C300.344,458.178,296.564,454.989,295.815,450.595z M213.098,242.593c5.027,0,9.117,4.09,9.117,9.117
	s-4.09,9.117-9.117,9.117c-5.027,0-9.117-4.09-9.117-9.117S208.07,242.593,213.098,242.593z M298.902,242.593
	c5.027,0,9.117,4.09,9.117,9.117s-4.09,9.117-9.117,9.117s-9.117-4.09-9.117-9.117S293.875,242.593,298.902,242.593z
	 M495.773,458.002c-0.159,0.176-0.332,0.176-0.397,0.176h-17.564L456.6,240.327c9.948,6.146,17.284,9.347,19.099,10.105
	l20.21,207.159C495.916,457.655,495.932,457.826,495.773,458.002z"/>
</svg>