<?xml version="1.0" encoding="iso-8859-1"?>
<!-- Uploaded to: SVG Repo, www.svgrepo.com, Generator: SVG Repo Mixer Tools -->
<svg height="800px" width="800px" version="1.1" id="Layer_1" xmlns="http://www.w3.org/2000/svg" xmlns:xlink="http://www.w3.org/1999/xlink" 
	 viewBox="0 0 512.001 512.001" xml:space="preserve">
<path style="fill:#00C3FF;" d="M33.671,321.933c-14.697,0-26.391-12.324-25.618-27.001l7.508-119.44
	c0.567-9.011,8.04-16.029,17.068-16.029h9.592c4.722,0,8.551,3.829,8.551,8.551v4.776c0,7.361,4.711,13.897,11.694,16.225
	l50.225,16.742c9.218,3.073,19.381,0.673,26.252-6.197l44.678-44.678c7.523-7.523,18.853-9.646,28.563-5.301
	c44.228,19.794,167.737,74.282,214.839,86.842c14.191,3.784,27.439,5.999,38.808,7.267c21.713,2.424,38.152,20.642,38.152,42.491
	v18.65l-51.307,34.205L42.221,321.933H33.671z"/>
<polygon style="fill:#FAEBC8;" points="347.864,228.94 237.802,294.875 188.86,285.769 287.289,226.802 "/>
<polygon style="fill:#EBC9A0;" points="232.531,217.716 134.101,276.684 188.86,285.769 287.289,226.802 "/>
<path style="fill:#0096DC;" d="M146.949,275.354L223,229.349c5.347-3.203,11.675-4.373,17.809-3.256
	c29.404,5.355,118.031,21.831,148.869-2.076c-57.149-21.09-142.329-58.699-177.494-74.437c-9.71-4.346-21.04-2.222-28.563,5.3
	l-44.678,44.678c-6.871,6.871-17.034,9.269-26.252,6.197l-50.225-16.742c-6.984-2.328-11.694-8.863-11.694-16.225v-4.776
	c0-4.722-3.829-8.551-8.551-8.551H32.63c-9.029,0-16.502,7.018-17.069,16.029l-6.278,99.863H146.949z"/>
<path style="fill:#00AAF0;" d="M74.362,323.273l284.252,11.844v-36.478c-126.498-9.73-282.187-38.923-282.187-38.923L74.362,323.273
	z"/>
<path style="fill:#0096DC;" d="M487.857,252.822c-19.448,7.251-58.48,19.536-112.657,25.511c-5.198,0.573-10.154,2.678-14.11,6.1
	l-53.782,46.051l145.369,8.551l51.307-34.205V286.18C503.983,272.726,497.717,260.683,487.857,252.822z"/>
<path style="fill:#EBC9A0;" d="M119.182,321.933l-29.009-52.215c-8.874-15.974-23.143-28.269-40.252-34.684l-37.226-13.96
	l-4.642,73.857c-0.773,14.677,10.92,27.002,25.618,27.002H119.182z"/>
<path style="fill:#FAEBC8;" d="M332.961,330.484c-76.96,0-314.983-13.896-314.983-13.896v39.549c0,4.722,3.829,8.551,8.551,8.551
	h280.779c84.005,0,150.817-17.193,172.287-23.428c4.599-1.336,8.426-4.504,10.568-8.788l13.821-27.64
	C503.983,304.831,427.023,330.484,332.961,330.484z"/>
<path d="M512,286.181c0-25.883-19.466-47.575-45.279-50.458c-12.791-1.428-25.452-3.799-37.631-7.046
	c-47.174-12.581-175.441-69.322-213.63-86.413c-12.825-5.74-27.546-3.012-37.506,6.949l-44.676,44.676
	c-4.754,4.754-11.67,6.387-18.048,4.261l-50.225-16.742c-3.717-1.239-6.212-4.702-6.212-8.618v-4.776
	c0-9.136-7.432-16.568-16.568-16.568h-9.592c-13.228,0-24.24,10.342-25.07,23.542L0.048,294.51
	c-0.471,8.971,2.548,17.512,8.505,24.176v37.452c0,9.136,7.432,16.568,16.568,16.568h282.187
	c83.725,0,149.941-16.607,174.523-23.746c6.73-1.955,12.38-6.657,15.502-12.902l13.821-27.64c0.569-1.137,0.837-2.364,0.837-3.585
	h0.01v-18.651H512z M464.942,251.657c1.013,0.113,2.011,0.274,2.995,0.469c-2.903,0.94-6.21,1.95-9.989,3.013
	c-16.009,4.503-43.511,10.801-83.625,15.225c-6.915,0.762-13.304,3.531-18.477,8.005l-11.887,10.283
	c-0.584-0.187-1.194-0.316-1.831-0.366c-21.583-1.66-44.209-3.983-66.641-6.642l61.277-36.71
	c27.142,0.234,45.476-3.511,55.729-11.332c12.689,4.587,23.813,8.257,32.466,10.565C437.906,247.621,451.359,250.14,464.942,251.657
	z M230.88,318.21c-30.362-2.024-61.73-4.109-98.421-4.277l-22.658-40.785c38.637,6.797,133.626,22.669,217.404,29.995l-21.91,18.952
	C278.575,321.389,254.427,319.781,230.88,318.21z M33.671,313.917c-4.887,0-9.431-1.953-12.795-5.498s-5.075-8.186-4.823-12.984
	l4.16-66.186l35.443,13.291c15.312,5.742,28.118,16.777,36.06,31.072l22.392,40.306H33.671z M224.309,275.012l57.373-34.371
	c9.204,1.195,17.982,2.147,26.295,2.85l-58.325,34.941C241.078,277.317,232.607,276.171,224.309,275.012z M199.161,271.386
	c-8.488-1.26-16.685-2.512-24.5-3.733l52.459-31.426c3.696-2.215,8.048-3.012,12.253-2.247c5.879,1.071,11.628,2.061,17.257,2.978
	L199.161,271.386z M32.63,167.478h9.592c0.295,0,0.534,0.239,0.534,0.534v4.776c0,10.829,6.903,20.405,17.176,23.83l50.224,16.742
	c12.177,4.058,25.379,0.943,34.456-8.134l44.676-44.676c5.217-5.217,12.919-6.651,19.62-3.651c2.999,1.343,6.265,2.8,9.754,4.354
	l-8.111,8.816c-2.997,3.258-2.787,8.33,0.471,11.328c1.54,1.417,3.486,2.116,5.426,2.116c2.163,0,4.32-0.871,5.901-2.589
	l11.787-12.812c4.372,1.93,8.959,3.948,13.72,6.035l-6.873,7.47c-2.997,3.258-2.787,8.33,0.471,11.328
	c1.54,1.417,3.486,2.116,5.426,2.116c2.163,0,4.32-0.871,5.901-2.589l10.62-11.544c4.502,1.955,9.108,3.946,13.788,5.961
	l-5.774,6.277c-2.997,3.258-2.787,8.33,0.471,11.328c1.54,1.417,3.486,2.116,5.426,2.116c2.163,0,4.32-0.871,5.901-2.589
	l9.605-10.44c4.592,1.955,9.221,3.916,13.87,5.872l-4.84,5.261c-2.997,3.258-2.787,8.33,0.471,11.328
	c1.54,1.417,3.486,2.116,5.426,2.116c2.163,0,4.32-0.871,5.901-2.589l8.777-9.54c16.93,7.023,33.704,13.798,49.148,19.745
	c-22.78,5.986-69.02,3.414-129.332-7.571c-8.032-1.463-16.331,0.051-23.365,4.266l-68.84,41.241
	c-25.494-4.175-44.266-7.546-51.618-8.889c-9.584-12.272-22.411-21.777-37.134-27.297l-40.02-15.007l2.296-36.526
	C23.863,171.219,27.845,167.478,32.63,167.478z M482.992,328.887c-1.13,2.259-3.183,3.963-5.634,4.675
	c-18.666,5.421-86.094,23.111-170.051,23.111H25.12c-0.295,0-0.534-0.239-0.534-0.534v-26.206c0.177,0.012,0.356,0.018,0.536,0.018
	h102.612c38.213,0,70.682,2.164,102.08,4.257c31.662,2.111,64.401,4.294,103.147,4.294c68.437,0,127.284-13.172,155.625-20.801
	L482.992,328.887z M332.961,322.468c-1.201,0-2.381-0.009-3.572-0.013l36.946-31.96c2.665-2.306,6.125-3.795,9.744-4.194
	c65.653-7.241,99.593-19.348,110.464-23.861c5.867,6.237,9.424,14.604,9.424,23.74v12.738
	C476.925,304.577,410.557,322.468,332.961,322.468z"/>
</svg>