<?xml version="1.0" encoding="iso-8859-1"?>
<!-- Uploaded to: SVG Repo, www.svgrepo.com, Generator: SVG Repo Mixer Tools -->
<svg height="800px" width="800px" version="1.1" id="Layer_1" xmlns="http://www.w3.org/2000/svg" xmlns:xlink="http://www.w3.org/1999/xlink" 
	 viewBox="0 0 512 512" xml:space="preserve">
<path style="fill:#7DC882;" d="M119.182,469.779v27.364c0,3.777,3.829,6.841,8.551,6.841h256.534c4.722,0,8.551-3.063,8.551-6.841
	v-27.364H119.182z"/>
<path style="fill:#8CE187;" d="M461.228,438.841c0,3.239-1.83,6.2-4.727,7.648l-55.131,27.566V401.37h59.858V438.841z"/>
<polygon style="fill:#7DC882;" points="435.574,457.11 393.136,478.33 393.136,401.37 434.181,401.37 "/>
<path style="fill:#8CE187;" d="M50.772,438.841c0,3.239,1.83,6.2,4.727,7.648l63.683,31.841v-76.96H50.772V438.841z"/>
<polygon style="fill:#7DC882;" points="76.743,457.11 119.182,478.33 119.182,401.37 78.136,401.37 "/>
<path style="fill:#8CE187;" d="M462.547,97.641c-0.788-33.1-22.659-61.987-54.305-71.724L350.063,8.017H161.937l-58.179,17.901
	c-31.646,9.737-53.517,38.623-54.305,71.724l-7.094,297.944c-0.083,3.493,1.968,6.686,5.18,8.063l54.54,23.375h1.097l-0.647,25.215
	c-0.247,9.614,7.48,17.541,17.097,17.541h272.749c9.617,0,17.343-7.927,17.097-17.541l-0.647-25.215h1.097l54.539-23.374
	c3.212-1.377,5.264-4.57,5.181-8.064L462.547,97.641z"/>
<g>
	<path style="fill:#7DC882;" d="M161.937,8.017c0,51.949,42.112,94.063,94.063,94.063s94.063-42.113,94.063-94.063H161.937z"/>
	<path style="fill:#7DC882;" d="M464.461,403.648l-54.54,23.375h-1.097l-7.454-290.739v-16.495c0-11.339,4.504-22.215,12.523-30.233
		l34.497-34.497v-0.001c8.635,12.201,13.784,26.904,14.158,42.586l7.094,297.942C469.724,399.079,467.673,402.272,464.461,403.648z"
		/>
	<path style="fill:#7DC882;" d="M98.107,89.556L63.61,55.059v-0.001c-8.633,12.201-13.783,26.904-14.156,42.586l-7.094,297.942
		c-0.083,3.494,1.969,6.687,5.18,8.064l54.54,23.373h1.096l7.456-290.739v-16.495C110.63,108.45,106.125,97.575,98.107,89.556z"/>
</g>
<g>
	<path style="fill:#6EB978;" d="M84.559,144.408l-6.804,272.191l24.324,10.425h1.069l7.372-294.908
		c0.06-2.403-1.871-4.382-4.275-4.382h-4.589C92.378,127.733,84.792,135.132,84.559,144.408z"/>
	<path style="fill:#6EB978;" d="M427.758,144.408l6.803,272.191l-24.324,10.424h-1.069l-7.372-294.908
		c-0.06-2.403,1.871-4.382,4.275-4.382h4.589C419.939,127.733,427.525,135.132,427.758,144.408z"/>
	<path style="fill:#6EB978;" d="M196.142,8.017c0,33.059,26.799,59.858,59.858,59.858s59.858-26.799,59.858-59.858H196.142z"/>
</g>
<g>
	<polygon style="fill:#7DC882;" points="403.311,212.011 379.691,221.795 338.405,204.693 297.148,221.795 255.926,204.693 
		214.71,221.795 173.482,204.693 132.254,221.795 108.689,212.019 107.82,245.865 132.254,256 173.482,238.898 214.71,256 
		255.926,238.898 297.148,256 338.405,238.898 379.691,256 404.18,245.856 	"/>
	<polygon style="fill:#7DC882;" points="406.782,347.391 379.691,358.614 338.405,341.511 297.148,358.614 255.926,341.511 
		214.71,358.614 173.482,341.511 132.254,358.614 105.218,347.398 104.35,381.243 132.254,392.818 173.482,375.716 214.71,392.818 
		255.926,375.716 297.148,392.818 338.405,375.716 379.691,392.818 407.65,381.237 	"/>
</g>
<g>
	<polygon style="fill:#FFDC64;" points="407.433,372.776 379.691,384.267 338.405,367.165 297.148,384.267 255.926,367.165 
		214.71,384.267 173.481,367.165 132.254,384.267 104.567,372.781 103.699,406.626 132.254,418.472 173.481,401.37 214.71,418.472 
		255.926,401.37 297.148,418.472 338.405,401.37 379.691,418.472 408.301,406.621 	"/>
	<polygon style="fill:#FFDC64;" points="403.962,237.395 379.691,247.449 338.405,230.347 297.148,247.449 255.926,230.347 
		214.71,247.449 173.481,230.347 132.254,247.449 108.037,237.403 107.17,271.248 132.254,281.653 173.481,264.551 214.71,281.653 
		255.926,264.551 297.148,281.653 338.405,264.551 379.691,281.653 404.83,271.24 	"/>
</g>
<path d="M477.655,395.394l-7.094-297.942c-0.871-36.602-24.968-68.429-59.963-79.196L362.251,3.38
	C354.964,1.136,347.402,0,339.776,0H172.224c-7.625,0-15.187,1.136-22.476,3.38l-48.348,14.876
	C66.407,29.023,42.31,60.85,41.439,97.452l-7.094,297.941c-0.148,6.195,3.108,11.822,8.411,14.808v28.639
	c0,6.316,3.509,11.994,9.158,14.819l59.251,29.624v12.148c0,9.136,7.432,16.568,16.568,16.568h256.534
	c9.136,0,16.568-7.432,16.568-16.568v-12.148l59.251-29.625c5.649-2.825,9.158-8.503,9.158-14.819v-28.639
	C474.547,407.215,477.803,401.589,477.655,395.394z M307.219,16.033C303.354,40.825,281.86,59.858,256,59.858
	s-47.354-19.033-51.219-43.825H307.219z M188.615,16.033c3.981,33.659,32.673,59.858,67.385,59.858s63.405-26.199,67.385-59.858
	h16.39c0.633,0,1.265,0.016,1.896,0.035C337.618,60.153,300.817,94.063,256,94.063c-22.417,0-43.641-8.574-59.762-24.139
	c-14.923-14.409-24.004-33.385-25.9-53.855c0.628-0.019,1.257-0.035,1.886-0.035C172.223,16.033,188.615,16.033,188.615,16.033z
	 M57.468,97.834c0.707-29.696,20.258-55.517,48.649-64.253l48.347-14.877c0.012-0.003,0.025-0.006,0.036-0.011
	c2.476,23.857,13.175,45.939,30.601,62.764c19.126,18.468,44.305,28.639,70.899,28.639c26.53,0,51.664-10.129,70.775-28.519
	c17.491-16.833,28.244-38.968,30.727-62.883c0.012,0.003,0.022,0.006,0.034,0.01l48.347,14.877
	c28.391,8.736,47.942,34.557,48.649,64.253l7.094,297.942c0.005,0.219-0.122,0.418-0.324,0.503l-44.756,19.181l-7.164-279.383
	c-0.113-4.426-3.804-7.915-8.22-7.808c-4.426,0.113-7.922,3.794-7.808,8.22l2.429,94.703l-17.971,7.559l-37.551-15.794
	c-1.988-0.837-4.231-0.837-6.218,0l-37.52,15.793l-37.485-15.792c-1.989-0.839-4.234-0.839-6.225,0l-37.479,15.791l-37.49-15.791
	c-1.989-0.838-4.233-0.838-6.224,0L134.13,238.75l-17.914-7.546l2.429-94.715c0.113-4.426-3.383-8.106-7.808-8.22
	c-4.433-0.114-8.106,3.383-8.22,7.808l-7.164,279.383l-44.755-19.18c-0.202-0.087-0.329-0.285-0.324-0.505L57.468,97.834z
	 M399.254,366.551l-21.442,9.019l-37.551-15.794c-1.988-0.837-4.231-0.837-6.218,0l-37.52,15.793l-37.485-15.792
	c-1.989-0.839-4.234-0.839-6.225,0l-37.479,15.791l-37.489-15.791c-1.99-0.838-4.234-0.838-6.224,0l-37.489,15.792l-21.384-9.008
	l2.161-84.306l16.11,6.786c1.99,0.838,4.234,0.838,6.224,0l37.489-15.792l37.49,15.792c0.995,0.419,2.053,0.629,3.113,0.629
	s2.117-0.21,3.113-0.629l37.479-15.791l37.484,15.791c1.99,0.839,4.234,0.839,6.222,0.001l37.522-15.794l37.55,15.794
	c1.987,0.836,4.229,0.836,6.216,0l16.172-6.802L399.254,366.551z M112.304,383.772l18.714,7.883c1.99,0.838,4.234,0.838,6.224,0
	l37.489-15.792l37.49,15.792c1.99,0.838,4.234,0.838,6.225,0l37.479-15.791l37.484,15.791c1.989,0.839,4.234,0.839,6.222,0.001
	l37.522-15.794l37.55,15.794c0.994,0.419,2.051,0.627,3.108,0.627c1.057,0,2.114-0.208,3.108-0.627l18.775-7.897l0.426,16.632
	l-22.31,9.384l-37.551-15.794c-1.988-0.837-4.231-0.837-6.218,0l-37.52,15.793l-37.485-15.792c-1.989-0.839-4.234-0.839-6.225,0
	l-37.479,15.791l-37.49-15.791c-1.989-0.838-4.233-0.838-6.224,0l-37.489,15.792l-22.252-9.373L112.304,383.772z M396.651,265.032
	l-18.839,7.924l-37.551-15.794c-1.988-0.837-4.231-0.837-6.218,0l-37.52,15.793l-37.485-15.792c-1.989-0.839-4.234-0.839-6.225,0
	l-37.479,15.791l-37.49-15.791c-1.989-0.838-4.233-0.838-6.224,0l-37.489,15.792l-18.782-7.911l0.426-16.628l15.242,6.421
	c1.99,0.838,4.234,0.838,6.224,0l37.489-15.792l37.49,15.792c1.989,0.838,4.234,0.838,6.224,0l37.479-15.791l37.484,15.791
	c1.989,0.839,4.234,0.839,6.222,0.001l37.522-15.794l37.55,15.794c0.994,0.419,2.05,0.627,3.108,0.627
	c1.058,0,2.114-0.208,3.108-0.627l15.304-6.437L396.651,265.032z M119.626,461.762c-2.471,0-4.782-0.975-6.506-2.744
	c-1.725-1.769-2.64-4.105-2.576-6.574l0.893-34.832l19.581,8.249c1.99,0.838,4.234,0.838,6.224,0l37.489-15.792l37.49,15.792
	c1.99,0.838,4.234,0.838,6.225,0l37.479-15.791l37.484,15.791c1.99,0.839,4.234,0.839,6.222,0.001l37.522-15.794l37.55,15.794
	c0.994,0.419,2.05,0.627,3.108,0.627c1.057,0,2.114-0.208,3.108-0.627l19.643-8.261l0.894,34.845
	c0.064,2.47-0.851,4.805-2.576,6.574c-1.724,1.769-4.035,2.744-6.506,2.744H119.626V461.762z M58.789,438.841v-21.648l36.222,15.524
	l-0.495,19.317c-0.045,1.766,0.094,3.507,0.402,5.202l-35.833-17.917C58.902,439.228,58.789,439.044,58.789,438.841z
	 M384.267,495.967H127.733c-0.295,0-0.534-0.241-0.534-0.534v-17.637h257.603v17.637
	C384.802,495.726,384.562,495.967,384.267,495.967z M452.916,439.318l-35.834,17.917c0.309-1.695,0.448-3.435,0.402-5.202
	l-0.495-19.317l36.222-15.524v21.648C453.211,439.044,453.098,439.228,452.916,439.318z"/>
</svg>