<?xml version="1.0" encoding="iso-8859-1"?>
<!-- Uploaded to: SVG Repo, www.svgrepo.com, Generator: SVG Repo Mixer Tools -->
<svg height="800px" width="800px" version="1.1" id="Layer_1" xmlns="http://www.w3.org/2000/svg" xmlns:xlink="http://www.w3.org/1999/xlink" 
	 viewBox="0 0 511.999 511.999" xml:space="preserve">
<polygon style="fill:#FF95A8;" points="187.591,76.425 197.681,92.056 196.747,110.636 213.317,119.105 221.784,135.675 
	240.368,134.743 256,144.835 271.63,134.744 290.211,135.677 298.68,119.108 315.251,110.64 314.319,92.056 324.409,76.425 
	314.319,60.795 315.252,42.213 298.683,33.744 290.214,17.174 271.63,18.107 256,8.016 240.369,18.107 221.789,17.172 
	213.32,33.742 196.749,42.21 197.681,60.794 "/>
<path style="fill:#FF8294;" d="M274.555,103.218l2.784-5.451l8.286-4.234l-0.467-9.292l5.045-7.816l-5.045-7.816l0.467-9.291
	l-8.284-4.234l-4.234-8.285l-9.292,0.466l-7.817-5.045l-7.815,5.045l-9.29-0.467l-4.235,8.284l-8.285,4.234l0.466,9.292
	l-5.046,7.816l5.046,7.816l-0.468,9.29l8.286,4.234l2.786,5.453c-13.05,1.434-25.878,4.253-38.348,8.62l14.219,7.267l8.468,16.57
	l18.585-0.932l15.63,10.09l15.63-10.09l18.582,0.934l8.469-16.569l14.226-7.271C300.434,107.47,287.605,104.653,274.555,103.218z"/>
<path style="fill:#00C3FF;" d="M256,127.732c-113.344,0-205.228,133.997-205.228,299.29h410.455
	C461.227,261.729,369.343,127.732,256,127.732z"/>
<path style="fill:#00AAF0;" d="M459.853,392.818H52.145c-0.876,11.232-1.374,22.631-1.374,34.205h410.455
	C461.226,415.448,460.729,404.05,459.853,392.818z"/>
<path style="fill:#96DCFF;" d="M431.841,272.655c-1.529,0.223-3.057,0.447-4.866,0.447c-21.401,0-21.401-17.102-42.803-17.102
	c-21.386,0-21.386,17.102-42.774,17.102c-21.368,0-21.368-17.102-42.737-17.102c-21.38,0-21.38,17.102-42.76,17.102
	c-21.375,0-21.375-17.102-42.748-17.102s-21.374,17.102-42.748,17.102c-21.374,0-21.374-17.102-42.748-17.102
	c-21.364,0-21.364,17.102-42.729,17.102c-1.743,0-3.335-0.122-4.816-0.331c-9.376,22.69-16.704,47.363-21.711,73.455
	c7.676,5.062,12.53,12.387,26.528,12.387c21.365,0,21.365-17.102,42.729-17.102c21.375,0,21.375,17.102,42.748,17.102
	c21.375,0,21.375-17.102,42.748-17.102c21.375,0,21.375,17.102,42.748,17.102c21.38,0,21.38-17.102,42.76-17.102
	c21.368,0,21.368,17.102,42.737,17.102c21.386,0,21.386-17.102,42.774-17.102c21.401,0,21.401,17.102,42.803,17.102
	c14.06,0,18.889-7.376,26.612-12.441C448.573,320.056,441.234,295.36,431.841,272.655z"/>
<path style="fill:#FF95A8;" d="M469.804,503.983H42.195c-4.722,0-8.551-3.829-8.551-8.551v-68.409c0-4.722,3.829-8.551,8.551-8.551
	h427.609c4.722,0,8.551,3.829,8.551,8.551v68.409C478.355,500.154,474.526,503.983,469.804,503.983z"/>
<path d="M469.778,410.455h-0.614c-1.423-76.303-23.13-147.837-61.498-202.19c-28.93-40.984-64.843-68.749-104.071-81.16l1.041-2.037
	l14.261-7.288c2.81-1.436,4.517-4.388,4.359-7.54l-0.803-16.005l8.69-13.461c1.708-2.648,1.708-6.049,0-8.697l-8.689-13.46
	l0.804-16.001c0.158-3.152-1.548-6.104-4.359-7.541l-14.259-7.288l-7.288-14.261c-1.437-2.81-4.39-4.522-7.54-4.359L273.81,9.971
	l-13.461-8.69c-2.647-1.708-6.048-1.708-8.697,0L238.192,9.97l-16.001-0.804c-3.161-0.161-6.104,1.548-7.541,4.359l-7.288,14.259
	l-14.261,7.288c-2.81,1.436-4.517,4.388-4.359,7.54l0.803,16.005l-8.69,13.461c-1.708,2.648-1.708,6.049,0,8.697l8.689,13.46
	l-0.804,16.001c-0.158,3.152,1.548,6.104,4.359,7.541l14.259,7.288l1.043,2.042c-39.227,12.411-75.14,40.176-104.07,81.159
	c-38.367,54.354-60.074,125.887-61.497,202.191h-0.614c-9.136,0-16.568,7.432-16.568,16.568v68.409
	c0,9.136,7.432,16.568,16.568,16.568h427.557c9.136,0,16.568-7.432,16.568-16.568v-68.409
	C486.346,417.887,478.914,410.455,469.778,410.455z M83.697,281.076c0.413,0.011,0.814,0.042,1.232,0.042
	c13.496,0,20.637-5.716,26.375-10.309c4.927-3.943,8.486-6.793,16.354-6.793c7.875,0,11.436,2.85,16.366,6.794
	c5.74,4.593,12.882,10.308,26.382,10.308c13.5,0,20.644-5.715,26.382-10.308c4.93-3.944,8.491-6.794,16.366-6.794
	s11.436,2.85,16.366,6.794c5.74,4.593,12.883,10.308,26.382,10.308c13.502,0,20.647-5.715,26.388-10.307
	c4.931-3.944,8.494-6.795,16.372-6.795c7.871,0,11.431,2.85,16.358,6.793c5.739,4.593,12.88,10.309,26.378,10.309
	c13.504,0,20.651-5.715,26.393-10.307c4.933-3.945,8.498-6.795,16.38-6.795c7.891,0,11.459,2.851,16.397,6.797
	c5.745,4.591,12.895,10.305,26.406,10.305c0.449,0,0.889-0.017,1.332-0.03c7.409,19.02,13.336,39.379,17.541,60.766
	c-0.85,0.651-1.671,1.303-2.476,1.945c-4.938,3.946-8.506,6.797-16.397,6.797s-11.459-2.851-16.397-6.797
	c-5.745-4.591-12.895-10.305-26.406-10.305c-13.504,0-20.651,5.715-26.393,10.307c-4.933,3.945-8.498,6.795-16.38,6.795
	c-7.871,0-11.432-2.85-16.359-6.793c-5.739-4.593-12.88-10.309-26.377-10.309c-13.502,0-20.647,5.715-26.388,10.307
	c-4.931,3.944-8.495,6.795-16.372,6.795c-7.875,0-11.436-2.85-16.366-6.794c-5.74-4.593-12.883-10.308-26.382-10.308
	s-20.642,5.715-26.382,10.308c-4.93,3.944-8.491,6.794-16.366,6.794c-7.875,0-11.436-2.85-16.366-6.794
	c-5.74-4.593-12.883-10.308-26.382-10.308c-13.496,0-20.636,5.716-26.374,10.309c-4.928,3.944-8.487,6.794-16.356,6.794
	c-7.862,0-11.42-2.849-16.343-6.792c-0.793-0.635-1.607-1.278-2.44-1.92C70.352,320.483,76.283,300.109,83.697,281.076z
	 M220.455,115.457c-0.767-1.502-1.988-2.722-3.49-3.49l-11.951-6.109l0.673-13.401c0.084-1.677-0.36-3.339-1.271-4.75l-7.283-11.282
	l7.283-11.283c0.911-1.411,1.355-3.073,1.271-4.749l-0.672-13.405l11.952-6.108c1.502-0.767,2.722-1.988,3.49-3.49l6.108-11.951
	l13.401,0.673c1.677,0.081,3.339-0.361,4.75-1.271l11.282-7.283l11.283,7.283c1.411,0.911,3.074,1.352,4.749,1.271l13.405-0.672
	l6.108,11.952c0.767,1.502,1.988,2.722,3.49,3.49l11.951,6.108l-0.673,13.401c-0.084,1.677,0.36,3.339,1.271,4.75l7.283,11.282
	l-7.283,11.283c-0.911,1.411-1.355,3.073-1.271,4.749l0.672,13.405l-11.952,6.108c-1.502,0.767-2.722,1.988-3.49,3.49l-3.833,7.499
	c-10.4-2.148-20.991-3.243-31.709-3.243c-10.718,0-21.309,1.096-31.711,3.244L220.455,115.457z M256,135.749
	c69.145,0,130.081,51.288,165.3,128.711c-4.289-1.044-7.151-3.318-10.721-6.171c-5.745-4.591-12.895-10.305-26.406-10.305
	c-13.504,0-20.651,5.715-26.393,10.307c-4.933,3.945-8.498,6.795-16.38,6.795c-7.871,0-11.432-2.85-16.359-6.793
	c-5.739-4.593-12.88-10.309-26.377-10.309c-13.502,0-20.647,5.715-26.388,10.307c-4.931,3.944-8.495,6.795-16.372,6.795
	c-7.875,0-11.436-2.85-16.366-6.794c-5.74-4.593-12.883-10.308-26.382-10.308s-20.642,5.715-26.382,10.308
	c-4.93,3.944-8.491,6.794-16.366,6.794s-11.436-2.85-16.366-6.794c-5.74-4.593-12.883-10.308-26.382-10.308
	c-13.496,0-20.636,5.716-26.374,10.309c-3.527,2.824-6.361,5.079-10.57,6.137C125.935,187.023,186.865,135.749,256,135.749z
	 M63.075,359.774c5.078,3.582,11.646,6.856,21.854,6.856c13.496,0,20.637-5.716,26.375-10.309c4.927-3.943,8.486-6.793,16.354-6.793
	c7.875,0,11.436,2.85,16.366,6.794c5.74,4.593,12.882,10.308,26.382,10.308c13.5,0,20.644-5.715,26.382-10.308
	c4.93-3.944,8.491-6.794,16.366-6.794s11.436,2.85,16.366,6.794c5.74,4.593,12.883,10.308,26.382,10.308
	c13.502,0,20.647-5.715,26.388-10.307c4.931-3.944,8.495-6.795,16.372-6.795c7.87,0,11.431,2.85,16.358,6.793
	c5.739,4.593,12.88,10.309,26.378,10.309c13.504,0,20.651-5.715,26.393-10.307c4.933-3.945,8.498-6.795,16.38-6.795
	c7.891,0,11.459,2.851,16.397,6.797c5.745,4.591,12.895,10.305,26.406,10.305c10.26,0,16.849-3.296,21.943-6.892
	c2.432,16.43,3.869,33.379,4.208,50.717H58.872C59.211,393.129,60.648,376.192,63.075,359.774z M94.062,426.488v69.478H75.891
	v-69.478H94.062z M110.096,426.488h18.171v69.478h-18.171V426.488z M144.3,426.488h18.171v69.478H144.3V426.488z M178.505,426.488
	h18.171v69.478h-18.171V426.488z M212.71,426.488h18.171v69.478H212.71V426.488z M246.914,426.488h18.171v69.478h-18.171V426.488z
	 M281.119,426.488h18.171v69.478h-18.171V426.488z M315.323,426.488h18.171v69.478h-18.171V426.488z M349.528,426.488h18.171v69.478
	h-18.171V426.488z M383.733,426.488h18.171v69.478h-18.171V426.488z M417.937,426.488h18.171v69.478h-18.171V426.488z
	 M41.687,495.432v-68.409c0-0.295,0.239-0.534,0.534-0.534h17.637v69.478H42.221C41.926,495.966,41.687,495.727,41.687,495.432z
	 M470.313,495.432c0,0.295-0.239,0.534-0.534,0.534h-17.637v-69.478h17.637c0.295,0,0.534,0.239,0.534,0.534V495.432z"/>
<path d="M256.085,246.914c4.427,0,8.017-3.589,8.017-8.017s-3.589-8.017-8.017-8.017H256c-4.427,0-7.974,3.589-7.974,8.017
	S251.658,246.914,256.085,246.914z"/>
<path d="M213.33,383.732c4.427,0,8.017-3.589,8.017-8.017c0-4.427-3.589-8.017-8.017-8.017h-0.086c-4.427,0-7.974,3.589-7.974,8.017
	C205.27,380.143,208.902,383.732,213.33,383.732z"/>
<path d="M298.841,383.732c4.427,0,8.017-3.589,8.017-8.017c0-4.427-3.589-8.017-8.017-8.017h-0.085
	c-4.427,0-7.974,3.589-7.974,8.017C290.782,380.143,294.414,383.732,298.841,383.732z"/>
<path d="M384.267,383.732c4.427,0,8.017-3.589,8.017-8.017c0-4.427-3.589-8.017-8.017-8.017h-0.085
	c-4.427,0-7.974,3.589-7.974,8.017C376.208,380.143,379.84,383.732,384.267,383.732z"/>
<path d="M127.818,383.732c4.427,0,8.017-3.589,8.017-8.017c0-4.427-3.589-8.017-8.017-8.017h-0.086
	c-4.427,0-7.974,3.589-7.974,8.017C119.759,380.143,123.391,383.732,127.818,383.732z"/>
<path d="M341.597,246.914c4.427,0,8.017-3.589,8.017-8.017s-3.589-8.017-8.017-8.017h-0.085c-4.427,0-7.974,3.589-7.974,8.017
	S337.169,246.914,341.597,246.914z"/>
<path d="M170.488,246.914c4.427,0,8.017-3.589,8.017-8.017s-3.589-8.017-8.017-8.017h-0.086c-4.427,0-7.974,3.589-7.974,8.017
	S166.061,246.914,170.488,246.914z"/>
</svg>